<svg xmlns="http://www.w3.org/2000/svg" width="24" height="24" viewBox="0 0 24 24" fill="none">
<path d="M21.8777 6.68595C22.0217 6.20595 21.8777 5.85281 21.192 5.85281H18.9275C18.7159 5.83848 18.5054 5.89325 18.3276 6.00888C18.1498 6.1245 18.0144 6.29473 17.9417 6.49395C17.9417 6.49395 16.7897 9.30195 15.1577 11.1225C14.6297 11.6505 14.3897 11.8185 14.1017 11.8185C13.9577 11.8185 13.7417 11.6471 13.7417 11.1705V6.68595C13.7417 6.10995 13.5823 5.85281 13.1023 5.85281H9.54346C9.39894 5.84485 9.25715 5.89452 9.14918 5.99092C9.04121 6.08732 8.97586 6.2226 8.96746 6.3671C8.96746 6.91395 9.78346 7.0391 9.86746 8.5751V11.9162C9.86746 12.6482 9.73546 12.7734 9.44746 12.7734C8.67946 12.7734 6.81089 9.95338 5.70346 6.72538C5.48575 6.09795 5.26803 5.84424 4.69032 5.84424H2.42403C1.77603 5.84424 1.64746 6.14938 1.64746 6.48538C1.64746 7.08538 2.41546 10.0614 5.22346 13.9974C7.09546 16.6854 9.73203 18.1425 12.132 18.1425C13.572 18.1425 13.7503 17.8185 13.7503 17.2614V15.2368C13.7503 14.5888 13.8875 14.4602 14.3435 14.4602C14.6863 14.4602 15.2555 14.6317 16.5995 15.9242C18.1423 17.4671 18.3892 18.1528 19.2532 18.1528H21.5177C22.1657 18.1528 22.488 17.8288 22.3012 17.1911C22.1143 16.5534 21.3635 15.6311 20.3897 14.5374C19.8617 13.9134 19.0697 13.2414 18.8297 12.9054C18.4869 12.4734 18.5897 12.2814 18.8297 11.8974C18.8297 11.8922 21.5897 8.00424 21.8777 6.68595Z" fill="black"/>
</svg>