<svg xmlns="http://www.w3.org/2000/svg" width="104" height="13" viewBox="0 0 104 13" fill="none">
<path d="M99.0687 6.03122C98.599 6.02698 98.1313 5.96933 97.6743 5.85935L99.0347 2.79997L100.395 5.85935C99.9608 5.9672 99.5158 6.02486 99.0687 6.03122ZM103.864 8.36872L100.701 1.35622C100.327 0.599974 99.8509 0.256224 99.1367 0.256224H99.0007C98.2525 0.256224 97.7763 0.599974 97.4022 1.35622L94.2394 8.36872C93.9333 9.05622 94.1374 9.67497 94.7835 9.9156C95.041 10.0362 95.3349 10.0498 95.6021 9.9533C95.8693 9.85685 96.0883 9.65812 96.2119 9.39997L96.2459 9.33122L96.9601 7.81872C97.6622 8.05263 98.3975 8.16875 99.1367 8.16247C99.8428 8.17142 100.545 8.05507 101.211 7.81872L101.891 9.33122C101.996 9.59936 102.201 9.81482 102.463 9.93071C102.724 10.0466 103.02 10.0535 103.286 9.94998H103.32L103.388 9.9156C103.652 9.79976 103.861 9.58347 103.969 9.31338C104.078 9.04328 104.076 8.74104 103.966 8.47185C103.924 8.44674 103.889 8.41126 103.864 8.36872ZM92.4369 7.7156H91.8247V1.32185C91.8312 1.02171 91.7208 0.731011 91.5172 0.512396C91.3136 0.293782 91.0332 0.164748 90.7364 0.153099H90.6344C90.4892 0.146169 90.3441 0.168252 90.2074 0.218081C90.0706 0.267911 89.945 0.344509 89.8376 0.443491C89.7302 0.542473 89.6431 0.661895 89.5815 0.79492C89.5198 0.927946 89.4847 1.07196 89.4781 1.21872V7.74997H85.431V1.32185C85.4083 1.01847 85.273 0.734962 85.0523 0.528101C84.8316 0.32124 84.5417 0.206299 84.2407 0.206299C83.9397 0.206299 83.6498 0.32124 83.4291 0.528101C83.2083 0.734962 83.0731 1.01847 83.0504 1.32185V8.88435C83.0398 9.02916 83.0579 9.17466 83.1037 9.31229C83.1495 9.44991 83.2221 9.5769 83.3171 9.68579C83.4122 9.79467 83.5278 9.88325 83.6572 9.94633C83.7866 10.0094 83.9272 10.0457 84.0706 10.0531H91.2126V11.0843C91.202 11.2292 91.2201 11.3747 91.2659 11.5123C91.3117 11.6499 91.3843 11.7769 91.4793 11.8858C91.5744 11.9947 91.69 12.0833 91.8194 12.1463C91.9488 12.2094 92.0894 12.2457 92.2328 12.2531H92.3349C92.6178 12.2705 92.8963 12.1763 93.112 11.9904C93.3276 11.8045 93.4635 11.5413 93.4912 11.2562V8.9531C93.5182 8.6759 93.4376 8.39894 93.2662 8.18081C93.0948 7.96268 92.8462 7.8205 92.5729 7.78435H92.3689M80.6697 7.7156H80.0576V1.32185C80.064 1.02171 79.9536 0.731011 79.75 0.512396C79.5465 0.293782 79.2661 0.164748 78.9693 0.153099H78.9013C78.6097 0.153827 78.3297 0.268894 78.1204 0.474072C77.911 0.67925 77.7886 0.958528 77.779 1.2531V7.74997H73.7319V1.32185C73.7092 1.01847 73.5739 0.734962 73.3532 0.528101C73.1324 0.32124 72.8426 0.206299 72.5415 0.206299C72.2405 0.206299 71.9506 0.32124 71.7299 0.528101C71.5092 0.734962 71.3739 1.01847 71.3512 1.32185V8.88435C71.3406 9.02916 71.3587 9.17466 71.4046 9.31229C71.4504 9.44991 71.5229 9.5769 71.618 9.68579C71.713 9.79467 71.8286 9.88325 71.958 9.94633C72.0874 10.0094 72.228 10.0457 72.3715 10.0531H79.5134V11.0843C79.5028 11.2292 79.5209 11.3747 79.5667 11.5123C79.6126 11.6499 79.6851 11.7769 79.7802 11.8858C79.8752 11.9947 79.9908 12.0833 80.1202 12.1463C80.2496 12.2094 80.3902 12.2457 80.5337 12.2531H80.6357C80.919 12.2804 81.2016 12.1952 81.4238 12.0155C81.6459 11.8359 81.7902 11.5759 81.826 11.2906V8.91873C81.8531 8.64153 81.7724 8.36456 81.601 8.14643C81.4297 7.92831 81.181 7.78612 80.9078 7.74997H80.7037M67.6782 0.256224H67.5762C66.896 0.256224 66.4199 0.599974 65.9438 1.28747L62.1347 6.7531V1.3906C62.1347 1.08974 62.0165 0.801211 61.806 0.588475C61.5956 0.375738 61.3101 0.256224 61.0124 0.256224C60.7148 0.256224 60.4293 0.375738 60.2188 0.588475C60.0084 0.801211 59.8901 1.08974 59.8901 1.3906V8.6781C59.8767 8.83882 59.8953 9.00063 59.9448 9.15396C59.9943 9.3073 60.0737 9.44905 60.1783 9.57083C60.283 9.69261 60.4107 9.79195 60.5539 9.86297C60.6972 9.934 60.8531 9.97527 61.0124 9.98435H61.3185C62.0327 9.98435 62.5429 9.60622 62.985 8.9531L66.794 3.48747V8.8156C66.794 9.11645 66.9122 9.40499 67.1227 9.61772C67.3332 9.83046 67.6186 9.94998 67.9163 9.94998C68.214 9.94998 68.4994 9.83046 68.7099 9.61772C68.9204 9.40499 69.0386 9.11645 69.0386 8.8156V1.56247C69.055 1.40118 69.0385 1.23821 68.9901 1.08362C68.9417 0.929031 68.8625 0.786111 68.7573 0.663691C68.6521 0.54127 68.5232 0.44195 68.3786 0.371867C68.2339 0.301783 68.0766 0.262425 67.9163 0.256224H67.6782ZM56.3192 0.256224H49.7894C49.5065 0.238844 49.228 0.333005 49.0123 0.518912C48.7967 0.704819 48.6608 0.96799 48.6331 1.2531V8.9531C48.6266 9.25324 48.7371 9.54394 48.9407 9.76255C49.1442 9.98117 49.4246 10.1102 49.7214 10.1219H49.8234C49.9686 10.1288 50.1137 10.1067 50.2505 10.0569C50.3872 10.007 50.5129 9.93044 50.6203 9.83146C50.7277 9.73248 50.8147 9.61305 50.8764 9.48003C50.9381 9.347 50.9732 9.20299 50.9797 9.05622V2.52497H55.1629V8.9531C55.156 9.09985 55.1779 9.24652 55.2272 9.38472C55.2765 9.52293 55.3522 9.64994 55.4502 9.7585C55.5481 9.86707 55.6662 9.95504 55.7979 10.0174C55.9295 10.0797 56.0719 10.1152 56.2171 10.1219H56.3532C56.6501 10.137 56.941 10.0339 57.1636 9.83466C57.3861 9.63543 57.5225 9.35596 57.5435 9.05622V1.3906C57.55 1.09957 57.4431 0.817614 57.2459 0.605444C57.0487 0.393275 56.777 0.267867 56.4892 0.256224H56.3192ZM39.4166 7.88748C37.8862 7.88748 36.7979 6.71872 36.7979 5.13747C36.7979 4.43548 37.0738 3.76224 37.5649 3.26585C38.056 2.76947 38.7221 2.4906 39.4166 2.4906C40.1112 2.4906 40.7772 2.76947 41.2683 3.26585C41.7594 3.76224 42.0353 4.43548 42.0353 5.13747C42.0603 5.49633 42.0104 5.85647 41.889 6.19463C41.7676 6.53278 41.5773 6.84143 41.3305 7.10061C41.0837 7.35979 40.7859 7.56375 40.4562 7.69929C40.1265 7.83483 39.7724 7.89894 39.4166 7.88748ZM39.4166 0.187474C38.7798 0.170109 38.1459 0.280088 37.5512 0.511092C36.9566 0.742097 36.413 1.08958 35.9516 1.53357C35.4902 1.97756 35.1201 2.50932 34.8627 3.09829C34.6052 3.68727 34.4654 4.32185 34.4513 4.9656V5.17185C34.4346 5.81373 34.5439 6.45258 34.7731 7.05147C35.0022 7.65035 35.3465 8.19737 35.7861 8.66089C36.2257 9.12441 36.7519 9.49523 37.3342 9.7519C37.9165 10.0086 38.5434 10.146 39.1786 10.1562H39.3826C40.676 10.1756 41.9243 9.67658 42.8547 8.76835C43.7852 7.86011 44.322 6.6165 44.3479 5.30935V5.17185C44.3607 3.87882 43.8675 2.63306 42.9757 1.70592C42.0839 0.778781 40.8658 0.245362 39.5867 0.221849L39.4166 0.187474ZM29.9281 7.74997H26.085C26.3481 7.22779 26.5424 6.67309 26.6632 6.09997C26.8098 5.30614 26.8894 4.50117 26.9013 3.69372L26.9353 2.55935H29.8941L29.9281 7.74997ZM32.8529 7.74997H32.2407V1.3906C32.2513 1.24579 32.2332 1.10029 32.1874 0.962662C32.1416 0.825033 32.069 0.698047 31.9739 0.589163C31.8789 0.48028 31.7633 0.391697 31.6339 0.328619C31.5045 0.265541 31.3639 0.22924 31.2204 0.221849H25.7109C25.0648 0.221849 24.6567 0.634349 24.6567 1.3906V2.93747C24.6903 3.90457 24.6219 4.87254 24.4526 5.82498C24.3413 6.51307 24.0862 7.1693 23.7044 7.74997H23.4323C23.2956 7.73582 23.1574 7.74974 23.0261 7.7909C22.8948 7.83207 22.7731 7.89963 22.6683 7.98952C22.5635 8.07942 22.4777 8.18979 22.4161 8.31403C22.3546 8.43826 22.3185 8.57379 22.31 8.71247V11.0843C22.2994 11.2292 22.3175 11.3747 22.3634 11.5123C22.4092 11.6499 22.4817 11.7769 22.5768 11.8858C22.6718 11.9947 22.7874 12.0833 22.9168 12.1463C23.0462 12.2094 23.1868 12.2457 23.3303 12.2531H23.4323C23.7152 12.2705 23.9938 12.1763 24.2094 11.9904C24.4251 11.8045 24.561 11.5413 24.5886 11.2562V10.0875H31.6285V11.1187C31.6179 11.2635 31.6361 11.409 31.6819 11.5467C31.7277 11.6843 31.8002 11.8113 31.8953 11.9202C31.9903 12.029 32.106 12.1176 32.2354 12.1807C32.3648 12.2438 32.5053 12.2801 32.6488 12.2875H32.7508C33.0337 12.3049 33.3123 12.2107 33.5279 12.0248C33.7436 11.8389 33.8795 11.5757 33.9071 11.2906V8.98747C33.9262 8.85187 33.9184 8.71379 33.8842 8.58127C33.8499 8.44876 33.7898 8.32447 33.7075 8.21567C33.6252 8.10686 33.5223 8.01573 33.4047 7.94757C33.2872 7.87942 33.1574 7.83562 33.0229 7.81872H32.7848M17.1066 7.88748C15.5762 7.88748 14.4879 6.71872 14.4879 5.13747C14.4879 4.43548 14.7638 3.76224 15.2549 3.26585C15.746 2.76947 16.4121 2.4906 17.1066 2.4906C17.8011 2.4906 18.4672 2.76947 18.9583 3.26585C19.4494 3.76224 19.7253 4.43548 19.7253 5.13747C19.7593 6.71872 18.7391 7.88748 17.1066 7.88748ZM17.1066 0.187474C16.4698 0.170109 15.8359 0.280088 15.2412 0.511092C14.6466 0.742097 14.1029 1.08958 13.6416 1.53357C13.1802 1.97756 12.8101 2.50932 12.5526 3.09829C12.2952 3.68727 12.1554 4.32185 12.1413 4.9656V5.17185C12.1218 5.81444 12.2293 6.4545 12.4574 7.05462C12.6855 7.65474 13.0297 8.20286 13.4698 8.66695C13.91 9.13105 14.4373 9.50178 15.0208 9.7575C15.6044 10.0132 16.2326 10.1488 16.8686 10.1562H17.1066C18.4 10.1756 19.6483 9.67658 20.5787 8.76835C21.5092 7.86011 22.046 6.6165 22.072 5.30935V5.17185C22.106 2.24997 19.9634 0.187474 17.1066 0.187474ZM7.55005 7.74997H3.74102C3.99904 7.21363 4.19312 6.64821 4.31918 6.0656C4.46574 5.27177 4.54538 4.4668 4.55724 3.65935L4.59125 2.52497H7.55005V7.74997ZM10.4748 7.74997H9.86267V1.3906C9.87328 1.24579 9.85515 1.10029 9.80934 0.962662C9.76353 0.825033 9.69097 0.698047 9.59592 0.589163C9.50087 0.48028 9.38524 0.391697 9.25584 0.328619C9.12644 0.265541 8.98587 0.22924 8.84239 0.221849H3.40093C2.75476 0.221849 2.34665 0.634349 2.34665 1.3906V2.93747C2.38034 3.90457 2.31193 4.87254 2.14259 5.82498C2.03128 6.51307 1.77622 7.1693 1.39439 7.74997H1.12232C0.985564 7.73582 0.847392 7.74974 0.716095 7.7909C0.584798 7.83207 0.463086 7.89963 0.358265 7.98952C0.253445 8.07942 0.167678 8.18979 0.106116 8.31403C0.0445529 8.43826 0.00846345 8.57379 1.4368e-05 8.71247V11.0843C-0.0105954 11.2292 0.00753701 11.3747 0.0533461 11.5123C0.0991551 11.6499 0.171717 11.7769 0.266768 11.8858C0.361819 11.9947 0.477441 12.0833 0.606842 12.1463C0.736243 12.2094 0.876812 12.2457 1.02029 12.2531H1.12232C1.40522 12.2705 1.68377 12.1763 1.89941 11.9904C2.11505 11.8045 2.25098 11.5413 2.27863 11.2562V10.0875H9.31852V11.1187C9.30791 11.2635 9.32605 11.409 9.37185 11.5467C9.41766 11.6843 9.49023 11.8113 9.58528 11.9202C9.68033 12.029 9.79595 12.1176 9.92535 12.1807C10.0548 12.2438 10.1953 12.2801 10.3388 12.2875H10.4408C10.7237 12.3049 11.0023 12.2107 11.2179 12.0248C11.4336 11.8389 11.5695 11.5757 11.5971 11.2906V8.98747C11.6242 8.71028 11.5435 8.43331 11.3721 8.21519C11.2007 7.99706 10.9521 7.85487 10.6789 7.81872C10.671 7.79973 10.6592 7.78266 10.6443 7.76865C10.6294 7.75465 10.6116 7.74403 10.5923 7.73752C10.573 7.73101 10.5525 7.72875 10.5322 7.7309C10.512 7.73305 10.4924 7.73955 10.4748 7.74997Z" fill="black"/>
</svg>