<svg width="556" height="180" viewBox="0 0 556 180" version="1.1" xmlns="http://www.w3.org/2000/svg" xmlns:xlink="http://www.w3.org/1999/xlink">
<title>appstore</title>
<desc>Created using Figma</desc>
<g id="Canvas" transform="translate(-41152 -15813)">
<g id="appstore">
<g id="Group">
<g id="Group">
<g id="Group">
<g id="Vector">
<use xlink:href="#path0_fill" transform="translate(41152 15813)"/>
</g>
</g>
<g id="Group">
<g id="Group 2">
<g id="Group 3">
<g id="Path">
<use xlink:href="#path1_fill" transform="translate(41195.3 15874.2)" fill="#FFFFFF"/>
</g>
<g id="Path 2">
<use xlink:href="#path2_fill" transform="translate(41236.7 15849.8)" fill="#FFFFFF"/>
</g>
</g>
</g>
<g id="Group">
<g id="Vector">
<use xlink:href="#path3_fill" transform="translate(41310.7 15894)" fill="#FFFFFF"/>
</g>
<g id="Vector">
<use xlink:href="#path4_fill" transform="translate(41368.1 15909.6)" fill="#FFFFFF"/>
</g>
<g id="Vector">
<use xlink:href="#path5_fill" transform="translate(41414.7 15909.6)" fill="#FFFFFF"/>
</g>
<g id="Vector">
<use xlink:href="#path6_fill" transform="translate(41477.8 15893.1)" fill="#FFFFFF"/>
</g>
<g id="Vector">
<use xlink:href="#path7_fill" transform="translate(41525.8 15899.7)" fill="#FFFFFF"/>
</g>
<g id="Vector">
<use xlink:href="#path8_fill" transform="translate(41553.6 15909.6)" fill="#FFFFFF"/>
</g>
<g id="Vector">
<use xlink:href="#path9_fill" transform="translate(41601.1 15909.6)" fill="#FFFFFF"/>
</g>
<g id="Vector">
<use xlink:href="#path10_fill" transform="translate(41624.7 15909.1)" fill="#FFFFFF"/>
</g>
</g>
</g>
</g>
<g id="Group 4">
<g id="Group">
<g id="Vector">
<use xlink:href="#path11_fill" transform="translate(41314.4 15848.8)" fill="#FFFFFF"/>
</g>
<g id="Vector">
<use xlink:href="#path12_fill" transform="translate(41339.8 15856.3)" fill="#FFFFFF"/>
</g>
<g id="Vector">
<use xlink:href="#path13_fill" transform="translate(41365.3 15856.8)" fill="#FFFFFF"/>
</g>
<g id="Vector">
<use xlink:href="#path14_fill" transform="translate(41384.1 15855.9)" fill="#FFFFFF"/>
</g>
<g id="Vector">
<use xlink:href="#path15_fill" transform="translate(41408.1 15856.8)" fill="#FFFFFF"/>
</g>
<g id="Vector">
<use xlink:href="#path16_fill" transform="translate(41431.2 15856.3)" fill="#FFFFFF"/>
</g>
<g id="Vector">
<use xlink:href="#path17_fill" transform="translate(41454.7 15856.8)" fill="#FFFFFF"/>
</g>
<g id="Vector">
<use xlink:href="#path18_fill" transform="translate(41478.3 15856.8)" fill="#FFFFFF"/>
</g>
<g id="Vector">
<use xlink:href="#path19_fill" transform="translate(41498.8 15856.8)" fill="#FFFFFF"/>
</g>
<g id="Vector">
<use xlink:href="#path20_fill" transform="translate(41535.7 15856.8)" fill="#FFFFFF"/>
</g>
</g>
</g>
</g>
</g>
</g>
<defs>
<path id="path0_fill" d="M 35.7798 180C 34.3675 180 32.9551 180 31.5428 180C 28.718 180 25.4225 179.529 22.5978 179.058C 19.7731 178.586 17.4191 177.644 14.5944 176.702C 12.2405 175.288 9.88654 173.874 8.00339 171.99C 6.12024 170.105 4.23709 167.749 3.29551 165.393C 1.88315 163.037 1.41236 160.209 0.941575 157.382C 0.470787 154.555 5.61222e-08 151.728 5.61222e-08 148.429C 5.61222e-08 147.487 5.61222e-08 144.188 5.61222e-08 144.188L 5.61222e-08 35.3403C 5.61222e-08 35.3403 5.61222e-08 32.0419 5.61222e-08 31.0995C 5.61222e-08 28.2723 0.470787 24.9738 0.941575 22.1466C 1.41236 19.7906 2.35394 16.9633 3.7663 14.6073C 5.17866 12.2513 6.59102 9.89529 8.47417 8.01047C 10.3573 6.12565 12.7113 4.71204 15.0652 3.29843C 17.4191 1.88482 20.2439 1.41361 23.0686 0.942408C 25.8933 0.471204 28.718 -1.12344e-07 32.0135 -1.12344e-07L 36.2506 -1.12344e-07L 520.22 -1.12344e-07L 524.457 -1.12344e-07C 527.282 -1.12344e-07 530.107 0.471204 533.402 0.942408C 536.227 1.41361 538.581 2.35602 541.406 3.29843C 546.113 5.65445 550.351 9.89529 552.704 14.6073C 554.117 16.9633 554.588 19.7906 555.058 22.1466C 555.529 24.9738 556 28.2723 556 31.0995C 556 32.5131 556 33.9267 556 35.3403C 556 37.2251 556 38.6387 556 40.5236L 556 139.005C 556 140.89 556 142.304 556 144.188C 556 145.602 556 147.016 556 148.429C 556 151.257 555.529 154.084 555.058 157.382C 554.588 160.209 553.646 162.565 552.704 165.393C 551.292 167.749 549.88 170.105 547.997 171.99C 546.113 173.874 543.76 175.759 541.406 176.702C 539.052 178.115 536.227 179.058 533.402 179.058C 530.577 179.529 527.753 180 524.457 180C 523.045 180 521.633 180 520.22 180L 515.041 180L 35.7798 180Z"/>
<path id="path1_fill" d="M 69.6942 30.263C 69.6942 22.2525 73.9313 14.7133 80.9931 10.4724C 76.756 4.34679 69.6942 0.577154 62.1616 0.105949C 54.1582 -0.836459 46.6256 4.81799 42.3885 4.81799C 38.1514 4.81799 32.0312 0.105949 25.4401 0.105949C 16.4952 0.577154 8.49179 5.2892 4.25471 12.8285C -4.69026 28.3782 1.90077 51.9384 10.8457 64.6609C 15.0828 70.7866 20.2615 77.8546 26.8525 77.8546C 33.4435 77.3834 35.7975 73.6138 43.8009 73.6138C 51.8042 73.6138 53.6874 77.8546 60.7492 77.8546C 67.811 77.8546 72.0481 71.729 76.2852 65.1321C 79.5807 60.8913 81.9346 55.708 83.347 50.5248C 74.8728 47.6976 69.6942 39.2159 69.6942 30.263Z"/>
<path id="path2_fill" d="M 15.1363 16.4921C 18.9026 11.7801 20.7857 6.12565 20.315 -8.98751e-07C 14.6655 0.471203 9.01606 3.29843 5.24976 8.01047C 1.48346 12.2513 -0.399695 17.9058 0.0710925 24.0314C 6.19133 24.0314 11.37 21.2042 15.1363 16.4921Z"/>
<path id="path3_fill" d="M 36.7214 42.4084L 14.5944 42.4084L 9.41575 58.4293L 3.34515e-14 58.4293L 21.1854 1.7975e-06L 30.6012 1.7975e-06L 51.7866 58.4293L 42.3709 58.4293L 36.7214 42.4084ZM 16.9483 35.3403L 34.8383 35.3403L 25.8933 9.42409L 25.4225 9.42409L 16.9483 35.3403Z"/>
<path id="path4_fill" d="M 40.0169 21.6931C 40.0169 34.8869 32.9551 43.3685 22.127 43.3685C 16.4776 43.8397 11.2989 40.5413 8.94495 35.8293L 8.94495 57.0335L 3.59182e-06 57.0335L 3.59182e-06 0.488956L 8.47417 0.488956L 8.47417 7.55702C 11.2989 2.84498 16.4776 0.0177502 22.127 0.0177502C 32.4843 -0.453454 40.0169 8.49943 40.0169 21.6931ZM 30.6012 21.6931C 30.6012 13.2115 26.3641 7.55702 19.3023 7.55702C 12.7113 7.55702 8.00339 13.2115 8.00339 21.6931C 8.00339 30.1748 12.7113 35.8293 19.3023 35.8293C 26.3641 35.8293 30.6012 30.1748 30.6012 21.6931Z"/>
<path id="path5_fill" d="M 40.0169 21.6931C 40.0169 34.8869 32.9551 43.3685 22.127 43.3685C 16.4776 43.8397 11.2989 40.5413 8.94496 35.8293L 8.94496 57.0335L -7.18365e-06 57.0335L -7.18365e-06 0.488956L 8.47418 0.488956L 8.47418 7.55702C 11.2989 2.84498 16.4776 0.0177502 22.127 0.0177502C 32.9551 -0.453454 40.0169 8.49943 40.0169 21.6931ZM 31.072 21.6931C 31.072 13.2115 26.8349 7.55702 19.7731 7.55702C 13.182 7.55702 8.47418 13.2115 8.47418 21.6931C 8.47418 30.1748 13.182 35.8293 19.7731 35.8293C 26.8349 35.8293 31.072 30.1748 31.072 21.6931Z"/>
<path id="path6_fill" d="M 8.00337 42.8796C 8.47416 48.534 14.1236 52.3037 22.127 52.3037C 29.6596 52.3037 34.8383 48.534 34.8383 43.3508C 34.8383 38.6387 31.5428 36.2827 24.0102 34.3979L 16.4776 32.5131C 5.64945 29.6859 0.941561 24.9738 0.941561 16.9634C 0.941561 7.06806 9.88652 -1.7975e-06 22.127 -1.7975e-06C 34.3675 -1.7975e-06 42.8416 7.06806 43.3124 16.9634L 34.3675 16.9634C 33.8967 11.3089 29.1888 7.53927 22.127 7.53927C 15.0652 7.53927 10.3573 11.3089 10.3573 16.4921C 10.3573 20.733 13.6528 23.089 21.1854 24.9738L 27.7765 26.3874C 39.5462 29.2147 44.7248 33.9267 44.7248 42.4084C 44.7248 53.2461 35.7798 60.3141 22.127 60.3141C 8.94495 60.3141 0.470787 53.7173 -6.69029e-14 42.8796L 8.00337 42.8796Z"/>
<path id="path7_fill" d="M 14.5944 -3.595e-06L 14.5944 9.89529L 22.5978 9.89529L 22.5978 16.9633L 14.5944 16.9633L 14.5944 40.5236C 14.5944 44.2932 16.0068 45.7068 19.7731 45.7068C 20.7147 45.7068 21.6562 45.7068 22.5978 45.7068L 22.5978 52.7749C 21.1854 53.2461 19.3023 53.2461 17.8899 53.2461C 9.41575 53.2461 6.12024 49.9476 6.12024 41.9372L 6.12024 17.4346L -1.43673e-05 17.4346L -1.43673e-05 10.3665L 6.12024 10.3665L 6.12024 0.471202L 14.5944 0.471202L 14.5944 -3.595e-06Z"/>
<path id="path8_fill" d="M -7.18365e-06 21.6754C -7.18365e-06 8.48168 8.0034 -1.7975e-06 20.2439 -1.7975e-06C 32.4843 -1.7975e-06 40.4877 8.48168 40.4877 21.6754C 40.4877 35.3403 32.4843 43.3508 20.2439 43.3508C 7.53261 43.3508 -7.18365e-06 34.8691 -7.18365e-06 21.6754ZM 31.5428 21.6754C 31.5428 12.2513 27.3057 7.06806 20.2439 7.06806C 13.1821 7.06806 8.94496 12.2513 8.94496 21.6754C 8.94496 31.0995 13.1821 36.2827 20.2439 36.2827C 27.3057 36.2827 31.5428 30.6283 31.5428 21.6754Z"/>
<path id="path9_fill" d="M -1.43673e-05 0.0447663L 8.47417 0.0447663L 8.47417 7.58403C 9.41575 2.87199 14.1236 -0.426438 18.8315 0.0447663C 19.7731 0.0447663 20.7147 0.0447681 21.6562 0.515972L 21.6562 8.52645C 20.2439 8.05524 18.8315 8.05524 17.8899 8.05524C 13.182 8.05524 8.94495 11.8249 8.94495 16.5369C 8.94495 17.0081 8.94495 17.4793 8.94495 17.9505L 8.94495 43.3956L -1.43673e-05 43.3956L -1.43673e-05 0.0447663Z"/>
<path id="path10_fill" d="M 38.6046 30.6283C 37.663 38.1675 29.6596 43.822 20.2439 43.822C 8.00339 43.822 -1.43673e-05 35.3403 -1.43673e-05 22.1466C -1.43673e-05 8.95288 7.53261 -3.595e-06 19.7731 -3.595e-06C 31.5428 -3.595e-06 39.0754 8.01047 39.0754 21.2042L 39.0754 24.0314L 8.94496 24.0314L 8.94496 24.5026C 8.47417 30.6283 12.7112 35.8115 18.8315 36.7539C 19.3023 36.7539 19.7731 36.7539 20.2439 36.7539C 24.481 37.2251 28.718 34.8691 30.1304 30.6283L 38.6046 30.6283ZM 8.94496 17.9058L 30.1304 17.9058C 30.6012 12.2513 25.8933 7.53926 20.2439 7.06806C 19.7731 7.06806 19.7731 7.06806 19.3023 7.06806C 13.6529 7.06806 8.94496 11.7801 8.94496 17.9058Z"/>
<path id="path11_fill" d="M 6.59103 13.1937L 10.3573 13.1937C 12.7113 13.6649 15.0652 11.7801 15.536 8.95288L 15.536 8.48168C 15.536 5.65445 13.6528 4.24084 10.3573 4.24084C 7.5326 3.76963 5.17866 5.65445 4.70787 8.48168L 0.470795 8.48168C 0.941582 3.76963 4.70788 0 9.88654 0L 10.3573 0C 16.0068 0 19.7731 3.29843 19.7731 7.53927C 19.7731 10.8377 17.8899 13.1937 14.5944 14.1361L 14.5944 14.6073C 18.3607 14.6073 21.1854 17.9058 20.7147 21.2042C 20.2439 26.3874 15.536 30.1571 10.3573 29.6859C 5.17866 30.1571 0.470784 26.8586 -3.59182e-06 21.6754C -3.59182e-06 21.6754 -3.59182e-06 21.6754 -3.59182e-06 21.2042L 4.23709 21.2042C 4.70788 24.0314 7.06181 25.445 10.8281 25.445C 14.5944 25.445 16.9484 23.5602 16.9484 20.733C 16.9484 17.9058 14.5944 16.0209 10.8281 16.0209L 7.06181 16.0209L 7.06181 13.1937L 6.59103 13.1937Z"/>
<path id="path12_fill" d="M 0.470784 15.5497C 0.470784 11.7801 3.29551 9.42409 8.47417 9.42409L 14.1236 8.95288L 14.1236 7.06806C 14.1236 4.71204 12.7113 3.76963 9.88653 3.76963C 7.5326 3.76963 6.12024 4.71204 5.64946 6.12565L 1.41236 6.12565C 1.88315 2.35602 5.17866 1.7975e-06 9.88653 1.7975e-06C 15.0652 1.7975e-06 18.3607 2.82723 18.3607 7.06806L 18.3607 21.6754L 14.1236 21.6754L 14.1236 18.8482L 13.6528 18.8482C 12.2405 21.2042 9.88654 22.1466 7.06182 22.1466C 3.7663 22.6178 0.470791 19.7906 3.59182e-06 16.4921C 0.470791 16.0209 0.470784 16.0209 0.470784 15.5497ZM 14.1236 13.6649L 14.1236 11.7801L 8.94495 12.2513C 6.12023 12.2513 4.70788 13.6649 4.70788 15.0785C 4.70788 16.9634 6.59102 17.9058 8.47417 17.9058C 11.2989 18.8482 14.1236 16.9634 14.1236 13.6649C 14.1236 14.1361 14.1236 14.1361 14.1236 13.6649Z"/>
<path id="path13_fill" d="M 4.23709 3.29843L 4.23709 21.2042L -7.18365e-06 21.2042L -7.18365e-06 -8.98751e-07L 14.1236 -8.98751e-07L 14.1236 3.29843L 4.23709 3.29843Z"/>
<path id="path14_fill" d="M 20.2439 11.3089C 20.2439 17.9058 16.9483 22.1466 11.2989 22.1466C 8.47417 22.1466 6.12023 20.733 4.70787 18.377L 4.23709 18.377L 4.23709 28.7435L -7.18365e-06 28.7435L -7.18365e-06 0.471206L 4.23709 0.471206L 4.23709 3.76963L 4.70787 3.76963C 6.12023 1.41361 8.47417 1.67405e-14 11.2989 1.67405e-14C 16.9483 0.471204 20.2439 4.71204 20.2439 11.3089ZM 16.0068 11.3089C 16.0068 6.59686 13.6528 4.24084 10.3573 4.24084C 7.06181 4.24084 4.70787 7.06806 4.70787 11.3089C 4.70787 15.5497 7.06181 18.377 10.3573 18.377C 14.1236 18.8482 16.0068 16.0209 16.0068 11.3089Z"/>
<path id="path15_fill" d="M 1.88314 28.7435L 1.88314 24.9738C 2.35393 24.9738 2.82473 24.9738 3.29552 24.9738C 5.17867 24.9738 6.59103 24.0314 7.06182 22.1466L 7.5326 21.2042L 3.59182e-06 -8.98751e-07L 4.70788 -8.98751e-07L 9.88653 16.9634L 10.3573 16.9634L 15.536 -8.98751e-07L 19.7731 -8.98751e-07L 11.7697 22.1466C 9.88654 27.3298 8.00339 28.7435 3.7663 28.7435C 3.29551 28.7435 2.35393 28.7435 1.88314 28.7435Z"/>
<path id="path16_fill" d="M -7.18365e-06 15.6011L 4.23709 15.6011C 4.70787 17.4859 6.59102 18.4283 8.94496 18.4283C 11.7697 18.4283 13.6528 17.0147 13.6528 15.1299C 13.6528 13.2451 12.2405 12.3027 8.94496 12.3027L 5.64945 12.3027L 5.64945 9.00426L 8.94496 9.00426C 11.2989 9.00426 12.7113 8.06185 12.7113 6.17703C 12.7113 4.76342 11.2989 3.34981 8.94496 3.34981C 6.59102 3.34981 4.70787 4.29221 4.70787 6.17703L 0.470791 6.17703C 0.941579 2.4074 4.70787 -0.419823 8.94496 0.0513812C 14.1236 0.0513812 16.9484 2.4074 16.9484 5.70583C 16.9484 7.59065 15.536 9.47546 13.6528 9.94667L 13.6528 10.4179C 16.0068 10.8891 17.8899 12.7739 17.8899 15.1299C 17.8899 19.3708 14.5944 21.7268 9.41574 21.7268C 4.23708 22.198 0.47078 19.842 -7.18365e-06 15.6011Z"/>
<path id="path17_fill" d="M -7.18365e-06 21.2042L -7.18365e-06 -8.98751e-07L 4.23709 -8.98751e-07L 4.23709 14.6073L 14.1236 -8.98751e-07L 18.3607 -8.98751e-07L 18.3607 21.2042L 14.1236 21.2042L 14.1236 6.59686L 13.6528 6.59686L 3.76631 21.2042L -7.18365e-06 21.2042Z"/>
<path id="path18_fill" d="M 17.4192 3.29843L 10.8281 3.29843L 10.8281 21.2042L 6.59102 21.2042L 6.59102 3.29843L -7.18365e-06 3.29843L -7.18365e-06 -8.98751e-07L 17.4192 -8.98751e-07L 17.4192 3.29843L 17.4192 3.29843Z"/>
<path id="path19_fill" d="M 19.4465 15.5497C 18.5049 19.3194 14.2678 22.1466 10.0307 21.6754C 4.85206 21.6754 0.144196 17.4346 0.144196 12.2513C 0.144196 11.7801 0.144196 11.3089 0.144196 10.8377C -0.797379 5.65445 2.96894 0.471203 8.61839 -8.98751e-07C 9.08917 -8.98751e-07 9.55994 -8.98751e-07 10.0307 -8.98751e-07C 16.151 -8.98751e-07 19.4465 4.24084 19.4465 10.8377L 19.4465 12.2513L 4.38129 12.2513C 3.9105 15.5497 6.26443 17.9058 9.55995 18.377L 10.0307 18.377C 11.9139 18.8482 14.2678 17.4346 15.2094 16.0209L 19.4465 15.5497ZM 4.85207 8.48167L 15.6802 8.48167C 15.6802 5.65445 13.797 3.29843 10.9723 2.82723L 10.5015 2.82723C 7.20599 3.29843 4.85207 5.65445 4.85207 8.48167Z"/>
<path id="path20_fill" d="M 0.470795 -8.98751e-07L 9.88654 -8.98751e-07C 14.1236 -8.98751e-07 16.4776 1.88482 16.4776 5.18325C 16.4776 7.53927 15.0652 9.42408 12.7113 9.89529L 12.7113 10.3665C 15.0652 10.3665 17.4191 12.7225 17.4191 15.0785C 17.4191 18.8482 14.5944 21.2042 9.88654 21.2042L 1.43673e-05 21.2042L 1.43673e-05 -8.98751e-07L 0.470795 -8.98751e-07ZM 4.70789 3.29843L 4.70789 8.48167L 8.94495 8.48167C 11.2989 8.48167 12.7113 7.53926 12.7113 5.65445C 12.7113 3.76963 11.7697 2.82723 9.41576 2.82723L 4.70789 3.29843ZM 4.70789 11.7801L 4.70789 17.9058L 9.88654 17.9058C 12.2405 17.9058 13.6528 16.9634 13.6528 14.6073C 13.6528 12.2513 12.2405 11.3089 9.41576 11.3089L 4.70789 11.7801Z"/>
</defs>
</svg>
