<svg width="185" height="65" viewBox="0 0 185 65" fill="none" xmlns="http://www.w3.org/2000/svg">
<path d="M89.5948 38.9148H76.6543C75.1682 38.9148 74.3639 39.9684 74.3639 41.2469V56.514C74.3639 58.0154 75.416 58.8769 76.7171 58.8769C77.9862 58.8769 79.0075 58.0143 79.0075 56.514V43.5462H87.2735V56.513C87.2735 58.0143 88.2948 58.8759 89.5959 58.8759C90.865 58.8759 91.9182 57.9814 91.9182 56.4801V41.2459C91.9172 39.9684 91.082 38.9148 89.5948 38.9148Z" fill="black"/>
<path d="M112.134 38.9148H111.949C110.587 38.9148 109.689 39.6172 108.729 41.0231L101.175 52.0736V41.2777C101.175 39.7763 100.246 38.9148 98.9768 38.9148C97.6767 38.9148 96.7172 39.7774 96.7172 41.2777V56.0015C96.7172 57.5984 97.7076 58.6849 99.2863 58.6849H99.5034C100.959 58.6849 101.887 57.9188 102.785 56.5766L110.34 45.526V56.3209C110.34 57.8223 111.268 58.6849 112.568 58.6849C113.837 58.6849 114.797 57.8223 114.797 56.3209V41.5971C114.797 39.9366 113.837 38.9148 112.134 38.9148Z" fill="black"/>
<path d="M137.955 54.0537H136.778V41.0869C136.778 39.5855 135.726 38.7229 134.425 38.7229C133.156 38.7229 132.133 39.5855 132.133 41.0869V54.0537H124.084V41.0869C124.084 39.5855 123.094 38.7229 121.762 38.7229C120.462 38.7229 119.441 39.5855 119.441 41.0869V56.354C119.441 57.6314 120.277 58.685 121.731 58.685H135.663V60.7933C135.663 62.2946 136.654 63.1562 137.923 63.1562C139.223 63.1562 140.213 62.2936 140.213 60.7933V56.4176C140.214 54.8515 139.317 54.0537 137.955 54.0537Z" fill="black"/>
<path d="M161.206 54.0537H160.029V41.0869C160.029 39.5855 158.977 38.7229 157.676 38.7229C156.407 38.7229 155.384 39.5855 155.384 41.0869V54.0537H147.335V41.0869C147.335 39.5855 146.345 38.7229 145.013 38.7229C143.713 38.7229 142.692 39.5855 142.692 41.0869V56.354C142.692 57.6314 143.528 58.685 144.982 58.685H158.914V60.7933C158.914 62.2946 159.905 63.1562 161.174 63.1562C162.474 63.1562 163.464 62.2936 163.464 60.7933V56.4176C163.465 54.8515 162.567 54.0537 161.206 54.0537Z" fill="black"/>
<path d="M183.838 55.331L177.522 41.1504C176.809 39.5854 175.819 38.9148 174.395 38.9148H174.147C172.661 38.9148 171.671 39.5854 170.959 41.1504L164.643 55.331C164.024 56.7358 164.457 57.9814 165.695 58.461C166.809 58.9088 167.924 58.6531 168.543 57.3119L169.967 54.2137C171.237 54.6615 172.815 54.8843 174.302 54.8843C175.88 54.8843 177.274 54.6604 178.449 54.2137L179.812 57.2801C180.4 58.6212 181.608 58.8769 182.691 58.461C183.93 57.9814 184.425 56.6721 183.838 55.331ZM174.302 50.6359C173.342 50.6359 172.32 50.5086 171.546 50.2847L174.24 44.0894L176.933 50.2847C176.19 50.5086 175.261 50.6359 174.302 50.6359Z" fill="black"/>
<path d="M95.1682 22.3797H93.9916V9.57204C93.9916 8.29457 93.1554 7.24097 91.7012 7.24097H81.082C79.8437 7.24097 79.0075 8.10358 79.0075 9.60387V12.7021C79.0075 14.9376 78.9766 16.6618 78.6053 18.5144C78.2341 20.3351 77.7692 21.4523 77.0883 22.3786H76.5628C75.0766 22.3786 74.3649 23.3367 74.3649 24.7108V29.1183C74.3649 30.6196 75.3553 31.4812 76.6255 31.4812C77.9255 31.4812 78.916 30.6185 78.916 29.1183V27.01H92.8788V29.1183C92.8788 30.6196 93.8692 31.4812 95.1384 31.4812C96.4384 31.4812 97.4288 30.6185 97.4288 29.1183V24.7108C97.4278 23.3378 96.7161 22.3797 95.1682 22.3797ZM89.348 22.3797H81.8245C82.2894 21.3579 82.6607 20.4316 82.9703 19.0268C83.2799 17.5573 83.4043 16.0878 83.4352 14.1716L83.466 11.8723H89.348V22.3797Z" fill="black"/>
<path d="M108.327 7.08081C102.785 7.08081 98.5129 11.3928 98.5129 17.1415C98.5129 22.9538 102.785 27.2021 108.327 27.2021C113.868 27.2021 118.141 22.7946 118.141 17.0778C118.141 11.3292 113.868 7.08081 108.327 7.08081ZM108.327 22.6991C105.293 22.6991 103.095 20.3351 103.095 17.1096C103.095 13.9478 105.293 11.5838 108.327 11.5838C111.392 11.5838 113.559 13.9467 113.559 17.1096C113.559 20.3351 111.484 22.6991 108.327 22.6991Z" fill="black"/>
<path d="M152.445 7.08081C146.903 7.08081 142.631 11.3928 142.631 17.1415C142.631 22.9538 146.903 27.2021 152.445 27.2021C157.987 27.2021 162.259 22.7946 162.259 17.0778C162.259 11.3292 157.987 7.08081 152.445 7.08081ZM152.445 22.6991C149.411 22.6991 147.213 20.3351 147.213 17.1096C147.213 13.9478 149.412 11.5838 152.445 11.5838C155.51 11.5838 157.677 13.9467 157.677 17.1096C157.677 20.3351 155.602 22.6991 152.445 22.6991Z" fill="black"/>
<path d="M139.441 22.3797H138.264V9.57204C138.264 8.29457 137.428 7.24097 135.974 7.24097H125.355C124.116 7.24097 123.28 8.10358 123.28 9.60387V12.7021C123.28 14.9376 123.249 16.6618 122.878 18.5144C122.507 20.3351 122.042 21.4523 121.361 22.3786H120.834C119.348 22.3786 118.636 23.3367 118.636 24.7108V29.1183C118.636 30.6196 119.627 31.4812 120.897 31.4812C122.197 31.4812 123.188 30.6185 123.188 29.1183V27.01H137.15V29.1183C137.15 30.6196 138.141 31.4812 139.41 31.4812C140.71 31.4812 141.7 30.6185 141.7 29.1183V24.7108C141.701 23.3378 140.989 22.3797 139.441 22.3797ZM133.621 22.3797H126.097C126.562 21.3579 126.933 20.4316 127.243 19.0268C127.552 17.5573 127.677 16.0878 127.708 14.1716L127.739 11.8723H133.621V22.3797Z" fill="black"/>
<path d="M27.8297 0.963953C45.8941 0.963953 59.7675 13.7833 59.7675 32.8085C59.7675 51.9356 45.8941 64.9629 27.8297 64.9629H7.57039C3.47801 64.9629 0.0839844 62.1713 0.0839844 57.3129V8.92377C0.0839844 4.06427 3.47801 0.962891 7.57039 0.962891H27.8297V0.963953Z" fill="#FF6900"/>
<path d="M14.1793 34.4964C14.1793 28.6025 12.3506 23.2432 12.9513 19.8861L12.8052 19.692C10.7246 21.9318 9.37109 21.3397 9.22402 20.6182C8.92781 19.1742 11.3633 17.4065 12.7548 16.7922C12.7816 16.6977 12.8176 16.5991 12.8556 16.4993C11.5536 16.7062 10.0242 16.5365 9.9707 15.5752C9.90796 14.4356 12.1254 13.4181 15.0237 13.6706C15.0782 13.6229 15.1348 13.5751 15.1913 13.5274C15.0093 13.4521 14.8139 13.3587 14.5701 13.2293C13.8214 12.8314 13.6393 12.1703 13.8841 11.6897C14.1526 11.1613 14.9723 10.9555 15.6367 10.9703C16.6796 10.9926 17.5672 11.2536 18.2161 11.5252C18.2892 11.4934 18.3632 11.4616 18.4331 11.434C18.1925 11.2398 17.9827 11.0287 17.8603 10.8122C17.6813 10.495 17.6371 10.0589 17.9837 9.77667C18.3889 9.4467 19.4174 9.32998 20.3472 10.2011C20.5395 10.3804 20.702 10.5555 20.8491 10.7231C20.953 10.703 21.0568 10.6817 21.1617 10.6648C21.0085 10.4207 20.8861 10.1661 20.847 9.92946C20.7925 9.60585 20.8954 9.25783 21.2636 9.13475C21.6657 9 22.1748 9.21327 22.4391 9.61752C22.722 10.0504 22.8958 10.5831 23.0048 10.9618C20.955 11.208 15.5184 12.4887 15.5184 19.2675C15.5184 25.8777 20.8419 32.8221 20.8419 43.0685C20.8336 46.7916 20.0376 50.5264 16.766 54.8766C14.24 58.2358 10.2268 61.4773 3.96944 64.1383C5.04216 64.6784 6.27018 64.9627 7.5702 64.9627H9.81951C14.9959 62.0046 17.5651 59.2926 19.3454 56.7483C22.8166 58.3441 26.1561 59.0295 29.1655 59.0295C34.8078 59.0295 39.617 56.3483 42.1245 51.5662C44.705 49.9683 46.4164 46.6834 46.5244 44.3364C48.1319 42.2504 48.4292 39.617 47.9355 37.8397C47.8172 37.4164 47.484 37.4037 46.906 37.7665C41.8221 40.9114 36.8987 42.4085 32.2006 42.4085C29.3516 42.4085 26.4297 41.9417 23.3205 41.0133C23.0984 37.5755 22.4144 34.6927 22.1594 32.9452C21.7963 30.6375 22.3126 28.9303 24.7676 28.9303C26.5685 28.9303 29.9008 29.4025 32.5636 30.6513C35.2007 31.8884 36.7702 34.3235 37.8665 34.3235C38.3119 34.3235 38.7798 34.0381 38.7798 33.0662C38.7798 31.0969 38.099 27.9266 37.2525 26.7966C39.7199 26.6512 41.6802 26.6777 42.7827 26.8061C45.0804 27.2178 45.1884 28.4072 45.6409 29.1828C46.0934 29.9584 46.8607 30.2958 47.7833 30.2958C49.4916 30.2958 50.5571 29.3865 50.5571 26.1048C50.5571 18.8962 46.1459 15.4022 41.5197 15.4022C37.7215 15.4022 36.2549 16.2638 32.648 16.2638C30.0891 16.2638 27.9693 10.8929 25.0618 10.1873C23.7772 7.24082 20.8974 6.90872 19.1233 8.38885C17.5126 7.3777 14.9939 7.92306 14.89 9.78941C13.0366 9.19735 10.6433 10.2287 11.6749 12.7412C7.14337 12.8738 6.29795 17.0076 9.37315 17.4691C5.41448 19.78 7.2236 23.7716 10.5456 22.9228C10.7801 25.7578 11.894 30.3351 11.894 33.4959C11.894 37.8917 9.96144 38.9124 7.31925 38.9124C5.2314 38.9124 2.16649 38.1305 0.0899658 37.5193V40.5846C2.19118 41.1236 5.34248 41.8154 7.70699 41.8154C11.8693 41.8165 14.1793 39.2965 14.1793 34.4964ZM23.3607 44.4542C26.2127 45.2712 30.1549 45.7072 33.4255 45.4706C39.1737 45.0547 43.4893 42.8467 45.9186 41.2393C44.4592 45.042 38.9855 47.4038 33.6785 48.0723C33.6446 48.3492 33.6045 48.6198 33.5561 48.8808C37.5374 48.6622 41.3182 47.3274 43.0316 46.1083C42.0515 49.8484 37.1816 51.3519 32.7611 51.5683C32.6366 51.8622 32.505 52.1392 32.3692 52.4023C34.9435 52.4501 37.4089 51.9577 38.8775 51.4803C37.5559 54.083 32.9946 56.1393 28.3489 56.1393C26.0656 56.1393 23.2167 55.6798 20.7442 54.466C22.5307 51.0941 23.2187 47.6383 23.3607 44.4542ZM34.8592 23.3695C35.4856 21.4437 36.0296 19.9912 37.0458 18.8835C38.1165 17.7163 39.3054 17.3513 41.9157 17.3513C45.5206 17.3513 48.532 21.1105 48.532 26.3647C48.532 27.1457 47.5159 27.1404 47.1898 26.4263C45.9639 24.1928 44.3028 23.8713 41.6864 23.6729C39.7559 23.5562 37.4274 23.7249 35.3066 23.8183C34.9106 23.8395 34.7996 23.5541 34.8592 23.3695Z" fill="black"/>
<path d="M0.0839844 49.9334C2.26233 49.4867 4.40571 49.0729 4.40571 49.0729L4.67929 47.8612C3.69605 47.8103 1.74603 47.8337 0.0839844 47.8803V49.9334Z" fill="black"/>
<path d="M23.5614 13.7547C24.3225 13.4905 25.4158 14.2651 26.001 15.4789C26.5862 16.6927 26.4422 17.8959 25.6812 18.1548C24.9262 18.4306 23.8381 17.6561 23.2498 16.4359C23.1706 16.2715 23.1079 16.1081 23.0554 15.9468L23.1881 15.9086C23.4318 16.1473 23.7229 16.2131 23.9173 16.0847C24.1847 15.9033 24.1569 15.4216 23.9307 15.0056C23.7692 14.6651 23.3958 14.3086 23.0873 14.3351L23.0338 14.2629C23.149 14.02 23.3239 13.8396 23.5614 13.7547ZM28.8962 25.9692C25.4878 25.1968 21.7575 24.1761 19.7683 21.1596C19.7313 21.1034 19.6634 21.0779 19.5997 21.097C19.5369 21.115 19.4917 21.1744 19.4886 21.2424C19.4814 21.4068 19.503 21.5872 19.539 21.7665L19.2695 21.8715C18.745 21.1097 18.638 20.1845 19.1585 19.5192C19.9072 18.5622 21.4263 18.6598 22.3334 19.2508L22.2182 19.5086C21.7317 19.4248 21.2679 19.4248 20.9059 19.6519C20.5983 19.845 20.5562 20.1315 20.7454 20.4943C22.3972 23.6615 27.2002 24.349 32.9074 23.8907C33.4967 23.8429 33.6324 23.5692 33.7086 23.2763C34.2043 21.237 35.1032 19.4185 36.4413 18.0328C35.4004 18.1834 34.4326 18.2174 33.5882 18.2651C30.6406 18.4572 28.9549 18.0582 28.4283 17.6243L28.5239 17.3601C28.8376 17.4715 29.1636 17.4969 29.2305 17.4014C29.322 17.2731 29.2521 17.1924 29.1081 17.0619C28.5486 16.5208 26.0339 13.8619 26.0391 13.8767C25.7676 11.6284 22.5936 11.5467 21.3286 13.7589L20.8987 13.6401C21.0241 13.1552 21.2124 12.7595 21.3872 12.4719C18.7368 13.0894 17.229 15.5436 16.9554 17.9139C15.7809 28.1029 30.7599 25.7485 35.0415 29.8292C35.1227 29.895 35.3264 30.1942 35.4724 30.0054C35.639 29.4504 33.7528 27.078 28.8962 25.9692Z" fill="white"/>
<path d="M45.9147 41.2332C43.4865 42.8395 39.1668 45.0507 33.4216 45.4666C30.1531 45.7033 26.2057 45.265 23.3558 44.4481C23.3115 45.4284 23.2159 46.4407 23.0524 47.4624C24.6589 47.8879 27.5191 48.4503 31.6454 48.5712C31.4613 49.7161 30.3351 53.6005 27.4512 56.1119C32.7079 56.339 37.4708 54.2307 38.8716 51.4742C37.4029 51.9516 34.9366 52.444 32.3633 52.3962C32.4991 52.1341 32.6307 51.8561 32.7552 51.5622C37.1736 51.3469 42.0456 49.8402 43.0257 46.1022C41.3122 47.3203 37.5284 48.6561 33.5502 48.8747C33.5985 48.6137 33.6387 48.3441 33.6726 48.0662C38.9786 47.3988 44.4563 45.0327 45.9147 41.2332Z" fill="white"/>
</svg>
