<svg width="143" height="64" viewBox="0 0 117 52" fill="none" xmlns="http://www.w3.org/2000/svg">
<g clip-path="url(#clip0_6_2)">
<mask id="mask0_6_2" style="mask-type:alpha" maskUnits="userSpaceOnUse" x="-1" y="0" width="118" height="51">
<path fill-rule="evenodd" clip-rule="evenodd" d="M16.0288 22.1438C16.2628 22.5294 16.5787 22.8099 16.9765 22.9734C17.3626 23.137 17.7838 23.1604 18.2401 23.0201C18.673 22.8799 19.024 22.5644 19.258 22.0737L21.2821 17.5398H31.2154L33.2161 22.0269C33.4735 22.5294 33.7894 22.8566 34.234 22.9968C34.6669 23.137 35.0881 23.137 35.4742 22.9734C35.8603 22.8099 36.1879 22.5411 36.4219 22.1438C36.6559 21.7582 36.6793 21.3141 36.4687 20.8116L27.8458 1.4723C27.6586 1.03995 27.4363 0.689384 27.1321 0.479046C26.8279 0.268709 26.5354 0.151855 26.2312 0.151855C25.927 0.151855 25.6345 0.268709 25.3537 0.479046C25.0729 0.689384 24.8506 1.00489 24.6634 1.44894L15.9586 20.7766C15.7831 21.3141 15.7948 21.7699 16.0288 22.1438ZM22.7329 14.2912L26.2546 6.42691L29.7529 14.2912H22.7329ZM1.52072 22.693C1.89512 22.9734 2.28122 23.102 2.69072 23.102C3.10022 23.102 3.52142 22.9617 3.86072 22.693C4.21172 22.4125 4.41062 22.0035 4.41062 21.4543V15.1209H7.05482C8.48225 15.1209 9.76925 14.9572 10.8807 14.6417C11.9922 14.3145 12.9282 13.8354 13.7121 13.2161C14.4726 12.5967 15.0693 11.8139 15.4671 10.8907C15.8532 9.96758 16.0638 8.91588 16.0638 7.68892C16.0638 6.60218 15.8766 5.66735 15.5139 4.81431C15.1395 3.96128 14.5896 3.24847 13.8525 2.65252C13.1154 2.05656 12.1911 1.58914 11.0679 1.27364C9.96815 0.946446 8.65775 0.782852 7.16012 0.782852H2.69072C2.23442 0.782852 1.81322 0.946446 1.47392 1.26196C1.12292 1.58914 0.970822 1.97476 0.970822 2.40712V21.4543C0.959122 22.0035 1.14632 22.4125 1.52072 22.693ZM7.16012 4.05476C8.30675 4.05476 9.25445 4.14824 9.94475 4.35858C10.6584 4.54554 11.2083 4.81431 11.6061 5.14151C11.9922 5.49207 12.273 5.85431 12.39 6.28667C12.5304 6.71903 12.6006 7.18645 12.6006 7.68892C12.6006 8.35501 12.507 8.95098 12.3432 9.46513C12.1794 9.96758 11.8869 10.4116 11.4423 10.7739C11.0328 11.1244 10.4478 11.3932 9.73415 11.5801C9.02045 11.7671 8.11952 11.8606 7.06652 11.8606H4.42232V4.05476H7.16012ZM46.2149 22.8564H41.9444C41.4881 22.8564 41.0786 22.6929 40.7393 22.4007C40.4 22.0852 40.2362 21.6879 40.2362 21.2556V2.47715C40.2362 2.04478 40.3883 1.65916 40.7393 1.33198C41.0786 1.01647 41.4998 0.852871 41.9561 0.852871H51.7724C52.3691 0.852871 52.802 1.00478 53.0828 1.35535C53.3519 1.69422 53.4923 2.06815 53.4923 2.47715C53.4923 2.88614 53.3636 3.24838 53.0828 3.59894C52.7903 3.93782 52.3691 4.10142 51.7724 4.10142H43.6877V9.20789H46.3553C47.537 9.20789 48.6368 9.32481 49.7015 9.55848C50.7545 9.79216 51.6788 10.1662 52.4627 10.6686C53.2349 11.1711 53.8901 11.8371 54.3464 12.6902C54.8027 13.5432 55.0367 14.5832 55.0367 15.8452C55.0367 16.8502 54.8612 17.8201 54.5102 18.6731C54.1592 19.5262 53.6327 20.2857 52.919 20.905C52.2287 21.5243 51.3044 22.0035 50.1812 22.354C49.0463 22.6929 47.7359 22.8564 46.2149 22.8564ZM48.8708 12.7136C48.1805 12.5733 47.3498 12.5032 46.3553 12.5032H43.6877V19.5495H46.2266C47.3498 19.5495 48.2741 19.456 48.9644 19.2457C49.6547 19.0353 50.1812 18.7899 50.5556 18.4394C50.9534 18.1239 51.1991 17.7265 51.3395 17.2708C51.4799 16.8151 51.5501 16.3243 51.5501 15.8219C51.5501 15.2726 51.4565 14.7819 51.2927 14.3729C51.1289 13.9522 50.8481 13.6133 50.462 13.3329C50.0876 13.0641 49.5377 12.8537 48.8708 12.7136ZM61.1908 19.8417C62.1619 20.8584 63.3319 21.6647 64.6891 22.2372C66.0697 22.8332 67.6141 23.1137 69.3223 23.1137C71.0539 23.1137 72.5983 22.8099 73.9555 22.2372C75.3127 21.6413 76.4944 20.8584 77.4538 19.8417C78.4249 18.8251 79.162 17.6332 79.6651 16.2543C80.1682 14.8755 80.449 13.3798 80.449 11.8139C80.449 10.2481 80.1916 8.77564 79.6651 7.3968C79.162 6.01793 78.4015 4.81433 77.4538 3.80939C76.4827 2.79275 75.3361 1.98646 73.9555 1.41388C72.5983 0.817925 71.0305 0.537475 69.3223 0.537475C67.5907 0.537475 66.0463 0.841293 64.6891 1.41388C63.3319 2.00984 62.1502 2.79275 61.1908 3.80939C60.2197 4.82601 59.4826 6.01793 58.9795 7.3968C58.4764 8.77564 58.219 10.2714 58.219 11.8372C58.219 13.4031 58.4764 14.8755 58.9795 16.2543C59.4826 17.6332 60.2197 18.8251 61.1908 19.8417ZM62.2204 8.47185C62.5948 7.4786 63.0979 6.64894 63.7648 5.93613C64.4317 5.24669 65.239 4.72085 66.1867 4.34691C67.1344 3.97298 68.1874 3.7977 69.3223 3.7977C70.4689 3.7977 71.5336 3.98467 72.4813 4.34691C73.429 4.72085 74.2363 5.24669 74.8798 5.93613C75.5467 6.62557 76.0498 7.4786 76.4242 8.47185C76.7986 9.46513 76.9741 10.5635 76.9741 11.8139C76.9741 13.0759 76.7869 14.186 76.4242 15.1676C76.0498 16.1609 75.5467 16.9905 74.8798 17.7033C74.2129 18.3928 73.4056 18.9186 72.4579 19.2926C71.5102 19.6665 70.4806 19.8417 69.2989 19.8417C68.1757 19.8417 67.111 19.6548 66.1633 19.2926C65.2156 18.9186 64.4083 18.3928 63.7414 17.7033C63.0745 17.0139 62.5714 16.1609 62.197 15.1676C61.8226 14.1743 61.6471 13.0759 61.6471 11.8256C61.6939 10.5635 61.8811 9.44173 62.2204 8.47185ZM87.8906 4.07817H82.9415C82.3565 4.07817 81.9236 3.91457 81.631 3.5757C81.3385 3.26019 81.1981 2.86289 81.1981 2.4539C81.1981 2.02154 81.3268 1.65929 81.631 1.30873C81.8999 0.969855 82.345 0.806259 82.9415 0.806259H96.3965C96.9929 0.806259 97.4257 0.958171 97.7064 1.30873C97.9755 1.64761 98.1163 2.04491 98.1163 2.4539C98.1163 2.86289 97.9878 3.22513 97.7064 3.5757C97.4143 3.91457 96.9929 4.07817 96.3965 4.07817H91.3769V21.4544C91.3769 22.0035 91.2018 22.4126 90.8271 22.693C90.4646 22.9617 90.067 23.102 89.6334 23.102C89.2005 23.102 88.8144 22.9734 88.4405 22.693C88.078 22.4243 87.8906 22.0035 87.8906 21.4544V4.07817ZM95.8818 22.1438C96.1158 22.5294 96.4316 22.8099 96.8293 22.9734C97.2155 23.137 97.6368 23.1604 98.0925 23.0201C98.5254 22.8799 98.8764 22.5644 99.1104 22.0737L101.135 17.5398H111.068L113.069 22.0269C113.326 22.5294 113.642 22.8566 114.086 22.9968C114.52 23.137 114.941 23.137 115.327 22.9734C115.713 22.8099 116.041 22.5411 116.275 22.1438C116.509 21.7582 116.532 21.3141 116.322 20.8116L107.71 1.4723C107.523 1.03995 107.3 0.689384 106.997 0.479046C106.692 0.268709 106.4 0.151855 106.096 0.151855C105.792 0.151855 105.499 0.268709 105.218 0.479046C104.937 0.689384 104.715 1.00489 104.528 1.44894L95.8229 20.7766C95.6355 21.3141 95.6593 21.7699 95.8818 22.1438ZM102.586 14.2912L106.119 6.42691L109.617 14.2912H102.586ZM1.60287 40.9222C10.6587 39.6835 18.7083 39.2628 22.0311 39.2278C24.336 39.1577 23.9616 40.9806 22.5225 41.1326C22.0614 41.1772 21.4735 41.2264 20.7661 41.2856C17.2193 41.5826 10.6685 42.131 2.03577 43.6215C-0.339335 44.0539 -0.830733 41.2494 1.60287 40.9222ZM4.47372 35.4364C4.65181 34.916 4.85025 34.336 5.06616 33.724C6.31806 33.7123 7.61676 33.4318 8.69317 33.0813C8.20177 34.3083 7.80396 35.5586 7.75716 36.5635C7.69866 38.4099 9.73447 38.071 9.98017 36.844C10.1908 35.8858 10.6588 34.2265 11.4544 32.4386C12.25 30.7209 13.0924 29.12 13.5136 28.3721C14.1571 27.2386 12.0628 26.3739 11.3842 27.5424C11.0566 28.1033 10.4482 29.2134 9.82807 30.4989C8.76337 31.0948 7.05516 31.7258 5.72136 31.9128C6.14256 30.8494 6.61056 29.751 7.16046 28.7461C8.11986 26.9582 5.83836 26.2571 4.93746 27.9515C4.14186 29.4589 3.46326 31.0948 2.90166 32.6256C2.37516 34.0045 2.01246 35.3016 1.76676 36.1896C1.26366 38.0593 3.45156 38.4566 4.00146 36.7973C4.13633 36.4225 4.29478 35.9594 4.47372 35.4364ZM20.0185 34.1798C18.1114 36.4934 16.1809 37.8723 14.695 37.8723C13.3027 37.8723 12.7528 36.9492 12.7528 35.6755C12.7528 33.8526 14.227 31.1533 16.1692 29.3654C17.9125 27.7645 20.3695 26.3739 22.9435 27.4256C23.6455 26.4323 25.5175 27.2386 24.8857 28.3488C24.0199 29.8562 22.1713 34.2499 21.9256 36.5285C21.6799 38.5851 19.1293 38.4333 19.4335 36.2481C19.5154 35.7573 19.726 35.0211 20.0185 34.1798ZM22.1128 29.0733C20.8843 28.6175 19.5271 28.8629 17.7487 30.5806C16.0522 32.24 15.2215 34.0512 15.2215 35.0445C15.2215 35.3249 15.2449 35.6288 15.6778 35.6288C16.8829 35.6288 20.0068 32.9411 21.9022 29.5173C21.9724 29.3654 22.0426 29.2134 22.1128 29.0733ZM38.5749 27.0749C36.3402 27.0749 33.8832 29.225 31.5081 32.7774C32.1399 31.27 32.6898 29.9846 33.1227 29.0147C33.8598 27.3203 31.4847 26.2102 30.7242 27.9046C29.2454 31.2296 26.7567 38.4616 24.9915 43.5909C24.3843 45.3472 23.816 47.1235 23.1426 48.8565C22.464 50.5743 25.0497 51.5675 25.7049 49.8381C26.07 48.9262 26.8838 46.565 27.8716 43.6988C28.023 43.2593 28.1787 42.8076 28.3374 42.3477C31.5432 43.7149 34.7841 41.67 36.9135 39.4031C39.3471 36.8205 41.2893 33.0696 41.2542 30.417C41.2191 28.6992 40.5756 27.0749 38.5749 27.0749ZM34.9128 37.4983C32.9355 39.59 30.7242 40.7235 29.1798 40.0574C29.1777 40.0574 29.1755 40.0571 29.1733 40.0564L29.1688 40.0549L29.1644 40.0531C29.1564 40.0497 29.1467 40.0458 29.133 40.0458C29.2032 39.8471 29.2734 39.6367 29.3436 39.4264C32.2686 33.3032 36.2349 29.8444 37.7325 29.8444C38.259 29.8444 38.4111 30.2416 38.4111 30.8026C38.3877 32.4502 37.0656 35.1963 34.9128 37.4983ZM45.2087 30.487C47.3849 28.1733 50.4737 26.0933 53.7029 27.6475C54.6038 26.292 56.8502 27.4839 56.0663 29.0614C54.9899 31.2466 52.217 38.2345 51.9128 41.4947C51.7607 43.3059 48.9293 43.0956 49.175 41.2493C49.3037 40.2794 49.6898 38.7837 50.1929 37.1243C47.7359 40.6767 45.2204 42.8269 43.325 42.8269C41.6051 42.8269 40.8914 41.5064 40.8914 39.625C40.8914 36.9841 42.7751 33.0696 45.2087 30.487ZM43.7579 39.2628C43.7579 39.6601 43.8281 40.0574 44.378 40.0574C45.8873 40.0574 49.7132 36.4232 52.4744 30.3702C52.5329 30.2416 52.6031 30.0547 52.6733 29.8677C52.6675 29.8619 52.6616 29.859 52.6558 29.856C52.6499 29.8531 52.6441 29.8502 52.6382 29.8443C51.0938 29.1666 49.3973 29.7859 47.1509 32.3099C45.0215 34.6821 43.7579 37.6035 43.7579 39.2628ZM69.6383 29.4705C69.6383 27.8696 68.3747 26.9114 66.1868 26.9114C62.4896 26.9114 58.5116 30.2651 56.7917 35.0911C56.1716 36.8439 55.8323 38.6318 56.1131 40.0809C56.4875 41.7986 57.716 42.8854 59.6816 42.8854C63.3203 42.8854 67.4738 39.8121 67.4738 36.213C67.4738 35.2782 67.1579 34.4017 66.5144 33.8058C68.2577 32.6372 69.6383 31.1415 69.6383 29.4705ZM64.4318 36.026C64.4318 38.0009 62.2439 40.2094 60.056 40.2444C59.2253 40.2444 58.8275 39.6017 58.8275 38.7954C58.8275 38.2579 58.9562 37.4633 59.3072 36.3532C59.6699 36.4817 60.2081 36.4934 60.8867 36.3415C61.6589 36.1662 62.8289 35.7689 64.0691 35.1847C64.2563 35.3482 64.4318 35.6053 64.4318 36.026ZM66.0347 31.2233C64.4669 32.7892 62.0918 33.9226 60.0209 34.6121C61.3664 31.9711 63.7649 29.3186 65.906 29.3186C66.491 29.3186 66.7016 29.599 66.7016 29.9379C66.7133 30.3352 66.4676 30.791 66.0347 31.2233ZM81.3499 27.8462C82.1805 26.1868 84.6375 27.4137 83.8423 29.0731C83.3154 30.1481 82.2395 32.4502 81.2563 34.9976C80.2384 37.545 79.5364 39.9756 79.5949 41.3311C79.6534 43.1774 76.9156 43.3059 76.822 41.4596C76.7167 39.8003 77.3368 37.5567 78.0973 35.4533C76.7518 35.9675 75.1021 36.3998 73.5226 36.4348C73.2146 37.4625 72.9297 38.4333 72.6755 39.2998L72.6747 39.3026C72.3885 40.2775 72.1413 41.1203 71.9431 41.7634C71.3932 43.5163 68.749 42.6865 69.2989 40.9337C69.4505 40.4396 69.6259 39.8301 69.8256 39.1357L69.8264 39.1328L69.8267 39.132C70.151 38.0044 70.5397 36.6531 70.9954 35.2079C71.7676 32.8124 72.7153 30.1598 73.8268 27.8578C74.6224 26.1985 77.1145 27.4254 76.3189 29.0848C75.5467 30.6273 74.8681 32.3684 74.2831 34.0628C76.0148 33.7239 78.2494 32.7423 79.5364 31.8425C80.2735 30.1131 80.9521 28.6407 81.3499 27.8462ZM101.158 29.0732C101.989 27.4138 99.6487 26.3388 98.6898 27.8462C98.4787 28.1851 98.2095 28.6292 97.9289 29.1666C96.3261 30.8377 93.3896 32.2866 91.6224 32.8826C91.2485 32.6956 90.8156 32.5905 90.3125 32.5905C89.7275 32.5905 89.0958 32.7073 88.5804 32.941C89.2128 31.6439 89.9148 30.382 90.6168 29.1783C91.5405 27.5775 89.1425 26.1986 88.2179 27.7644C86.3696 30.9311 83.6901 36.5635 83.6901 39.9172C83.6901 41.5181 84.4273 42.897 86.3696 42.897C89.7275 42.897 93.2023 39.146 93.2023 35.8156C93.2023 35.3716 93.1319 34.9393 93.0035 34.5537C93.9395 34.2148 95.0276 33.7473 96.0921 33.1514C95.9988 33.3849 95.9047 33.619 95.8229 33.8525C94.8984 36.3181 94.0098 39.2395 94.1268 41.4481C94.2201 43.2943 96.9929 43.1658 96.8996 41.3195C96.8055 39.7537 97.4846 37.2881 98.4435 34.799C99.1161 32.961 100.023 31.2432 100.653 30.05C100.856 29.6653 101.03 29.3352 101.158 29.0732ZM87.0479 40.4898C86.1823 40.4898 86.4048 39.0409 86.674 38.0242C86.9546 36.8907 87.3285 35.7806 87.7851 34.6938C87.9954 34.8809 88.3701 34.9743 88.9199 34.9743C89.7504 34.9743 90.301 35.4651 90.301 36.2013C90.2773 37.9892 88.429 40.4898 87.0479 40.4898ZM107.874 32.4503C110.506 30.1599 112.881 28.2552 114.157 27.3438C115.666 26.2687 117.386 28.7694 115.877 29.821C114.496 30.8143 111.7 32.906 108.728 35.3833C109.488 37.7438 110.296 39.7537 110.857 40.9339C111.688 42.5932 109.161 43.7967 108.365 42.1024C107.85 41.0273 107.16 39.333 106.47 37.3348C104.633 38.959 102.843 40.6651 101.404 42.2894C100.175 43.6799 98.2562 41.9505 99.4614 40.5716C101.216 38.6084 103.404 36.4817 105.569 34.5069C105.042 32.6723 104.574 30.7209 104.27 28.7927C103.989 26.9815 106.727 26.5492 107.008 28.3604C107.219 29.7159 107.523 31.1065 107.874 32.4503Z" fill="black"/>
</mask>
<g mask="url(#mask0_6_2)">
<path d="M1881.82 -3.25H0V48.75H1881.82V-3.25Z" fill="url(#paint0_linear_6_2)"/>
</g>
</g>
<defs>
<linearGradient id="paint0_linear_6_2" x1="154.105" y1="-157.219" x2="918.713" y2="38.7613" gradientUnits="userSpaceOnUse">
<stop/>
<stop offset="0.87" stop-color="#ED771E"/>
<stop offset="1"/>
</linearGradient>
<clipPath id="clip0_6_2">
<rect width="117" height="52" fill="white"/>
</clipPath>
</defs>
</svg>
