<svg width="572" height="176" viewBox="0 0 575 180" fill="none" xmlns="http://www.w3.org/2000/svg">
<path d="M62.2915 142.311C59.7296 121.947 74.1606 103.363 94.524 100.801L529.818 46.0381C549.331 43.5833 567.139 57.4113 569.594 76.9239L573.368 106.924C573.952 111.569 570.66 115.809 566.014 116.394L103.801 174.543C83.4379 177.105 64.8533 162.674 62.2915 142.311V142.311Z" fill="#ED771E"/>
<path d="M103.553 125.143L104.34 131.402C104.463 132.378 104.668 133.189 104.954 133.837C105.27 134.447 105.689 134.924 106.211 135.268C106.767 135.609 107.442 135.814 108.237 135.885C109.066 135.952 110.035 135.915 111.146 135.775C111.92 135.678 112.637 135.537 113.297 135.351C113.991 135.161 114.601 134.982 115.126 134.813C115.681 134.607 116.136 134.413 116.489 134.232C116.871 134.013 117.109 133.863 117.201 133.783C117.882 133.219 118.534 132.966 119.157 133.024C119.779 133.083 120.255 133.331 120.583 133.768C120.945 134.201 121.116 134.743 121.096 135.395C121.071 136.014 120.737 136.62 120.094 137.213C119.69 137.537 119.188 137.891 118.587 138.274C117.986 138.658 117.315 139.033 116.575 139.399C115.831 139.732 115.015 140.04 114.127 140.322C113.236 140.571 112.285 140.759 111.276 140.886C109.728 141.081 108.262 141.111 106.878 140.978C105.49 140.811 104.261 140.418 103.192 139.801C102.119 139.15 101.223 138.271 100.502 137.166C99.8116 136.022 99.3604 134.609 99.1487 132.927L98.2534 125.81C98.1475 124.969 98.3384 124.313 98.826 123.841C99.343 123.332 99.9211 123.037 100.56 122.956C101.233 122.872 101.867 123.014 102.46 123.384C103.083 123.716 103.447 124.302 103.553 125.143ZM120.259 123.042L123.269 146.965C123.375 147.807 123.169 148.482 122.652 148.991C122.165 149.463 121.601 149.739 120.962 149.819C120.323 149.9 119.692 149.774 119.069 149.442C118.475 149.072 118.126 148.467 118.02 147.626L115.01 123.702C114.904 122.861 115.095 122.204 115.583 121.733C116.1 121.223 116.678 120.929 117.317 120.848C117.957 120.768 118.573 120.912 119.166 121.282C119.789 121.614 120.153 122.2 120.259 123.042Z" fill="black"/>
<path d="M138.053 121.367L141.005 144.837C141.111 145.678 140.906 146.353 140.389 146.863C139.901 147.334 139.321 147.612 138.648 147.697C138.009 147.777 137.378 147.652 136.755 147.32C136.161 146.95 135.812 146.345 135.706 145.503L132.753 122.034C132.647 121.193 132.838 120.536 133.326 120.065C133.843 119.555 134.421 119.26 135.06 119.18C135.733 119.095 136.366 119.238 136.96 119.607C137.583 119.939 137.947 120.526 138.053 121.367ZM125.704 120.203L144.429 117.847C145.304 117.737 145.994 117.924 146.499 118.407C147 118.857 147.291 119.402 147.371 120.041C147.447 120.647 147.301 121.246 146.931 121.84C146.561 122.433 145.939 122.785 145.064 122.895L126.339 125.25C125.464 125.361 124.757 125.176 124.218 124.697C123.713 124.214 123.423 123.669 123.346 123.063C123.266 122.424 123.413 121.825 123.787 121.265C124.19 120.667 124.829 120.313 125.704 120.203Z" fill="black"/>
<path d="M149.751 131.431C149.497 129.412 149.563 127.49 149.948 125.664C150.33 123.805 150.995 122.166 151.945 120.747C152.89 119.295 154.124 118.098 155.646 117.154C157.201 116.206 159.005 115.604 161.058 115.345C163.11 115.087 164.991 115.226 166.699 115.764C168.407 116.301 169.899 117.155 171.175 118.328C172.479 119.463 173.53 120.886 174.326 122.597C175.152 124.271 175.692 126.117 175.946 128.136C176.204 130.188 176.143 132.144 175.762 134.004C175.41 135.826 174.744 137.465 173.765 138.921C172.816 140.339 171.582 141.537 170.064 142.514C168.542 143.457 166.755 144.058 164.703 144.316C162.65 144.575 160.753 144.437 159.011 143.904C157.298 143.334 155.79 142.481 154.485 141.346C153.209 140.174 152.159 138.751 151.333 137.077C150.537 135.366 150.009 133.484 149.751 131.431ZM155.051 130.765C155.25 132.346 155.625 133.7 156.177 134.827C156.729 135.954 157.392 136.879 158.167 137.602C158.971 138.287 159.869 138.772 160.862 139.057C161.889 139.338 162.957 139.409 164.068 139.269C165.144 139.134 166.128 138.805 167.02 138.283C167.945 137.756 168.712 137.061 169.321 136.198C169.926 135.302 170.356 134.24 170.612 133.011C170.868 131.783 170.896 130.378 170.697 128.796C170.502 127.248 170.129 125.911 169.577 124.784C169.025 123.657 168.347 122.751 167.543 122.066C166.739 121.381 165.841 120.896 164.848 120.611C163.855 120.326 162.803 120.253 161.693 120.393C160.582 120.532 159.565 120.865 158.64 121.392C157.748 121.914 156.998 122.607 156.389 123.47C155.813 124.328 155.398 125.372 155.142 126.6C154.886 127.829 154.856 129.217 155.051 130.765Z" fill="black"/>
<path d="M196.232 137.427L193.311 114.21C193.231 113.571 193.411 112.967 193.852 112.399C194.327 111.826 194.918 111.496 195.625 111.407L203.347 110.435C204.827 110.249 206.19 110.214 207.435 110.331C208.714 110.444 209.829 110.748 210.78 111.243C211.761 111.701 212.56 112.352 213.179 113.197C213.794 114.009 214.178 115.02 214.33 116.231C214.495 117.544 214.334 118.709 213.847 119.727C213.356 120.712 212.587 121.527 211.54 122.171C213.403 122.313 214.882 122.93 215.977 124.023C217.067 125.082 217.722 126.486 217.943 128.236C218.12 129.649 218.044 130.94 217.712 132.11C217.381 133.28 216.776 134.313 215.898 135.21C215.015 136.073 213.859 136.799 212.429 137.389C210.995 137.946 209.252 138.353 207.199 138.611L199.174 139.621C198.467 139.71 197.815 139.552 197.218 139.149C196.649 138.708 196.321 138.134 196.232 137.427ZM201.214 134.237L206.564 133.564C208.112 133.369 209.311 133.116 210.16 132.804C211.043 132.488 211.682 132.134 212.077 131.742C212.468 131.317 212.685 130.863 212.726 130.379C212.768 129.895 212.757 129.401 212.693 128.896C212.634 128.425 212.512 127.996 212.327 127.609C212.171 127.185 211.836 126.834 211.322 126.556C210.843 126.275 210.119 126.093 209.151 126.009C208.218 125.922 206.926 125.982 205.277 126.189L199.524 126.913C198.649 127.023 197.963 126.87 197.466 126.454C196.97 126.038 196.685 125.544 196.613 124.972C196.541 124.4 196.694 123.851 197.073 123.325C197.451 122.798 198.077 122.48 198.952 122.37L204.403 121.685C205.509 121.511 206.386 121.281 207.034 120.995C207.677 120.674 208.146 120.325 208.44 119.946C208.768 119.563 208.957 119.163 209.007 118.747C209.091 118.326 209.109 117.931 209.063 117.561C209.016 117.19 208.923 116.86 208.784 116.57C208.641 116.246 208.386 115.988 208.02 115.795C207.65 115.568 207.137 115.427 206.48 115.373C205.858 115.315 205.025 115.351 203.982 115.482L198.935 116.117L201.214 134.237Z" fill="black"/>
<path d="M238.878 132.421L236.98 117.33C236.683 114.974 236.041 113.398 235.051 112.599C234.058 111.767 232.518 111.482 230.432 111.745C229.153 111.906 228.077 112.314 227.203 112.971C226.362 113.624 225.727 114.422 225.299 115.364C224.988 116.155 224.486 116.646 223.792 116.836C223.132 117.021 222.48 117.001 221.836 116.774C221.226 116.543 220.748 116.142 220.403 115.57C220.087 114.96 220.101 114.258 220.445 113.463C221.205 111.624 222.449 110.1 224.177 108.891C225.939 107.678 227.93 106.932 230.15 106.653C232.068 106.412 233.736 106.492 235.154 106.895C236.602 107.26 237.809 107.894 238.777 108.798C239.741 109.668 240.497 110.786 241.045 112.153C241.623 113.481 242.017 114.987 242.229 116.669L244.127 131.761C244.233 132.602 244.028 133.277 243.511 133.787C243.023 134.258 242.46 134.534 241.82 134.614C241.181 134.695 240.55 134.569 239.927 134.237C239.334 133.868 238.984 133.262 238.878 132.421ZM239.166 120.849C239.394 122.666 239.431 124.456 239.277 126.218C239.119 127.947 238.718 129.519 238.076 130.933C237.429 132.313 236.498 133.472 235.283 134.411C234.098 135.313 232.58 135.88 230.729 136.112C229.249 136.299 227.892 136.247 226.659 135.958C225.46 135.664 224.425 135.179 223.554 134.503C222.678 133.793 221.971 132.925 221.432 131.899C220.922 130.835 220.586 129.664 220.426 128.385C220.231 126.837 220.371 125.504 220.845 124.384C221.315 123.231 222.03 122.253 222.988 121.449C223.947 120.644 225.094 119.987 226.432 119.477C227.769 118.967 229.188 118.566 230.69 118.275C232.221 117.946 233.764 117.717 235.32 117.59C236.906 117.425 238.412 117.303 239.838 117.227C239.863 117.428 239.885 117.733 239.902 118.141C239.915 118.516 239.917 118.943 239.909 119.422C239.93 119.864 239.95 120.289 239.967 120.697C239.984 121.105 239.991 121.429 239.987 121.668C237.774 121.742 235.761 121.91 233.949 122.172C232.132 122.4 230.586 122.749 229.312 123.217C228.033 123.651 227.064 124.234 226.404 124.967C225.778 125.695 225.535 126.614 225.675 127.725C225.806 128.768 226.274 129.632 227.077 130.317C227.911 130.964 229.219 131.175 231.003 130.951C232.147 130.807 233.143 130.442 233.993 129.857C234.875 129.267 235.588 128.545 236.13 127.691C236.701 126.799 237.104 125.791 237.339 124.668C237.569 123.511 237.606 122.31 237.45 121.065C237.411 120.762 237.468 120.533 237.619 120.377C237.804 120.217 238 120.141 238.206 120.149C238.408 120.124 238.601 120.168 238.787 120.281C239.005 120.391 239.132 120.58 239.166 120.849Z" fill="black"/>
<path d="M264.491 104.896L267.5 128.82C267.606 129.661 267.401 130.337 266.884 130.846C266.396 131.318 265.833 131.594 265.193 131.674C264.554 131.754 263.923 131.629 263.3 131.297C262.707 130.927 262.357 130.322 262.251 129.481L259.241 105.557C259.136 104.715 259.327 104.059 259.814 103.588C260.331 103.078 260.909 102.783 261.549 102.703C262.188 102.622 262.804 102.767 263.398 103.137C264.02 103.469 264.385 104.055 264.491 104.896ZM277.792 129.115L265.889 117.231C265.497 116.836 265.278 116.316 265.231 115.673C265.214 114.991 265.348 114.427 265.634 113.981L274.35 101.759C274.846 101.081 275.449 100.715 276.16 100.66C276.871 100.604 277.489 100.766 278.016 101.144C278.537 101.488 278.891 101.991 279.077 102.651C279.296 103.307 279.16 103.991 278.668 104.702L271.061 115.144L281.594 125.509C282.183 126.119 282.436 126.77 282.352 127.464C282.264 128.125 281.977 128.691 281.489 129.162C281.031 129.596 280.447 129.84 279.736 129.896C279.063 129.98 278.415 129.72 277.792 129.115ZM247.676 129.776L255.364 117.119L245.577 109.019C244.929 108.485 244.613 107.876 244.63 107.19C244.675 106.466 244.908 105.873 245.329 105.41C245.778 104.909 246.354 104.597 247.057 104.475C247.759 104.352 248.436 104.575 249.089 105.142L260.334 114.648C260.721 115.01 260.974 115.525 261.092 116.193C261.24 116.824 261.173 117.379 260.892 117.859L252.253 132.328C251.799 133.069 251.219 133.483 250.512 133.572C249.843 133.691 249.217 133.599 248.632 133.296C248.076 132.956 247.674 132.477 247.425 131.858C247.173 131.207 247.256 130.513 247.676 129.776ZM258.964 113.949L266.838 112.958C267.746 112.844 268.453 113.028 268.958 113.512C269.464 113.995 269.756 114.556 269.837 115.196C269.913 115.801 269.766 116.401 269.397 116.994C269.023 117.554 268.381 117.891 267.473 118.005L259.599 118.996C258.724 119.106 258.02 118.938 257.485 118.493C256.98 118.01 256.689 117.465 256.613 116.859C256.533 116.22 256.677 115.604 257.047 115.01C257.45 114.413 258.089 114.059 258.964 113.949Z" fill="black"/>
<path d="M288.04 101.934L291.05 125.857C291.156 126.699 290.95 127.374 290.433 127.883C289.946 128.355 289.365 128.633 288.693 128.718C288.053 128.798 287.422 128.672 286.799 128.341C286.206 127.971 285.856 127.365 285.75 126.524L282.741 102.6C282.635 101.759 282.826 101.103 283.313 100.631C283.83 100.122 284.408 99.827 285.048 99.7465C285.721 99.6619 286.354 99.8044 286.947 100.174C287.57 100.506 287.934 101.092 288.04 101.934ZM306.261 99.6414L309.271 123.565C309.376 124.406 309.171 125.082 308.654 125.591C308.166 126.063 307.586 126.341 306.913 126.425C306.274 126.506 305.643 126.38 305.02 126.048C304.426 125.679 304.077 125.073 303.971 124.232L300.961 100.308C300.855 99.4669 301.046 98.8105 301.534 98.339C302.051 97.8296 302.629 97.5347 303.268 97.4543C303.941 97.3696 304.574 97.5121 305.168 97.8818C305.791 98.2136 306.155 98.8001 306.261 99.6414ZM286.944 111.557L304.609 109.334C305.484 109.224 306.174 109.411 306.679 109.894C307.18 110.344 307.471 110.888 307.551 111.528C307.627 112.133 307.481 112.733 307.111 113.326C306.741 113.92 306.119 114.271 305.244 114.382L287.579 116.604C286.704 116.714 285.997 116.529 285.458 116.05C284.953 115.567 284.662 115.023 284.586 114.417C284.506 113.778 284.652 113.178 285.026 112.618C285.43 112.021 286.069 111.667 286.944 111.557Z" fill="black"/>
<path d="M311.99 111.021C311.736 109.002 311.802 107.079 312.187 105.253C312.569 103.394 313.234 101.755 314.184 100.337C315.129 98.8846 316.362 97.6869 317.884 96.7434C319.44 95.7957 321.244 95.1928 323.297 94.9346C325.349 94.6763 327.23 94.8158 328.938 95.3528C330.646 95.8899 332.138 96.7447 333.413 97.9173C334.718 99.052 335.769 100.475 336.565 102.186C337.391 103.86 337.931 105.706 338.185 107.725C338.443 109.778 338.382 111.734 338 113.593C337.649 115.415 336.983 117.054 336.004 118.51C335.055 119.928 333.821 121.126 332.303 122.103C330.781 123.047 328.994 123.647 326.941 123.906C324.889 124.164 322.992 124.027 321.25 123.494C319.537 122.923 318.029 122.07 316.724 120.936C315.448 119.763 314.398 118.34 313.572 116.666C312.775 114.955 312.248 113.073 311.99 111.021ZM317.289 110.354C317.488 111.935 317.864 113.289 318.416 114.416C318.968 115.543 319.631 116.468 320.406 117.191C321.21 117.876 322.108 118.361 323.101 118.646C324.128 118.927 325.196 118.998 326.306 118.858C327.383 118.723 328.367 118.394 329.259 117.872C330.184 117.345 330.951 116.651 331.56 115.788C332.165 114.891 332.595 113.829 332.851 112.6C333.107 111.372 333.135 109.967 332.936 108.385C332.741 106.838 332.368 105.5 331.816 104.373C331.264 103.246 330.586 102.341 329.782 101.656C328.978 100.971 328.08 100.485 327.087 100.2C326.094 99.9149 325.042 99.8421 323.932 99.9818C322.821 100.121 321.804 100.455 320.879 100.981C319.987 101.503 319.237 102.196 318.628 103.059C318.052 103.917 317.636 104.961 317.381 106.189C317.125 107.418 317.095 108.806 317.289 110.354Z" fill="black"/>
<path d="M358.728 115.395C358.858 115.071 359.007 114.488 359.175 113.647C359.372 112.767 359.503 111.503 359.569 109.854C359.631 108.172 359.598 106.005 359.47 103.355C359.337 100.672 359.023 97.3615 358.528 93.4247C358.447 92.7854 358.628 92.1816 359.069 91.6134C359.544 91.0409 360.135 90.7103 360.841 90.6214L375.074 88.8307C375.781 88.7418 376.419 88.918 376.987 89.3592C377.589 89.7962 377.93 90.3344 378.01 90.9737L380.982 114.185C381.087 115.026 380.882 115.701 380.365 116.21C379.877 116.682 379.297 116.96 378.624 117.045C377.985 117.125 377.354 116.999 376.731 116.668C376.137 116.298 375.788 115.693 375.682 114.851L373.085 94.2082L364.101 95.3384C364.503 98.8084 364.741 101.786 364.815 104.272C364.922 106.754 364.93 108.855 364.839 110.576C364.747 112.296 364.58 113.684 364.337 114.74C364.128 115.792 363.874 116.627 363.576 117.246C363.265 118.037 362.765 118.544 362.075 118.768C361.415 118.953 360.763 118.933 360.119 118.706C359.505 118.442 359.025 118.024 358.679 117.452C358.368 116.876 358.384 116.19 358.728 115.395ZM356.641 124.476L355.745 117.359C355.661 116.687 355.856 116.064 356.331 115.491C356.806 114.919 357.396 114.588 358.103 114.499L381.774 111.521C382.481 111.432 383.118 111.609 383.687 112.05C384.289 112.487 384.632 113.042 384.717 113.715L385.612 120.831C385.718 121.673 385.512 122.348 384.995 122.857C384.512 123.362 383.95 123.655 383.311 123.736C382.672 123.816 382.039 123.674 381.412 123.308C380.818 122.938 380.469 122.333 380.363 121.492L379.785 116.899L361.362 119.216L361.94 123.809C362.046 124.651 361.841 125.326 361.324 125.835C360.84 126.34 360.262 126.635 359.589 126.72C358.95 126.8 358.317 126.658 357.69 126.292C357.096 125.923 356.747 125.317 356.641 124.476Z" fill="black"/>
<path d="M387.105 111.671C387.589 111.439 388.051 111.039 388.493 110.471C388.967 109.899 389.341 108.929 389.613 107.561C389.886 106.194 390.01 104.333 389.988 101.977C389.96 99.5878 389.71 96.5089 389.236 92.7403L388.842 89.611C388.762 88.9717 388.959 88.3658 389.434 87.7933C389.909 87.2209 390.499 86.8902 391.206 86.8013L405.237 85.0361C405.944 84.9472 406.581 85.1233 407.149 85.5646C407.751 86.0016 408.092 86.5397 408.173 87.179L411.151 110.851C411.257 111.692 411.051 112.367 410.534 112.876C410.047 113.348 409.483 113.624 408.844 113.704C408.205 113.785 407.573 113.659 406.951 113.327C406.357 112.958 406.008 112.352 405.902 111.511L403.197 90.4198L394.465 91.5183L394.535 92.0735C394.98 95.6066 395.237 98.736 395.306 101.462C395.371 104.154 395.203 106.482 394.801 108.447C394.432 110.407 393.815 112.023 392.949 113.294C392.084 114.565 390.909 115.55 389.425 116.25C388.617 116.625 387.888 116.665 387.235 116.372C386.587 116.111 386.124 115.691 385.846 115.111C385.568 114.53 385.507 113.906 385.662 113.237C385.817 112.568 386.298 112.046 387.105 111.671Z" fill="black"/>
<path d="M434.406 100.029L427.037 100.956C425.691 101.126 424.29 101.131 422.835 100.972C421.375 100.78 420.027 100.385 418.789 99.7891C417.586 99.1886 416.557 98.3439 415.702 97.2551C414.847 96.1663 414.316 94.7975 414.109 93.1488C413.901 91.5 414.045 90.0634 414.541 88.8389C415.036 87.6145 415.795 86.5791 416.816 85.7328C417.867 84.8486 419.145 84.1409 420.651 83.6097C422.19 83.0742 423.885 82.6901 425.735 82.4573L432.297 81.6318C433.003 81.5429 433.641 81.7191 434.209 82.1603C434.811 82.5973 435.152 83.1354 435.232 83.7748L438.198 107.345C438.304 108.187 438.098 108.862 437.581 109.371C437.093 109.843 436.513 110.121 435.84 110.205C435.201 110.286 434.57 110.16 433.947 109.828C433.354 109.459 433.004 108.853 432.898 108.012L430.257 87.0156L426.37 87.5045C424.755 87.7077 423.472 87.9716 422.522 88.2963C421.572 88.6209 420.853 89.019 420.365 89.4905C419.873 89.9284 419.556 90.3955 419.413 90.892C419.304 91.3842 419.286 91.9164 419.358 92.4884C419.434 93.0941 419.641 93.6492 419.978 94.1537C420.31 94.6245 420.771 95.028 421.36 95.364C421.979 95.6622 422.707 95.8782 423.544 96.0122C424.377 96.1125 425.332 96.0949 426.409 95.9594L433.777 95.0324C434.686 94.9181 435.393 95.1026 435.898 95.5859C436.399 96.0356 436.69 96.5801 436.77 97.2194C436.846 97.8251 436.699 98.4246 436.33 99.018C435.956 99.5778 435.315 99.9148 434.406 100.029ZM428.785 100.583L420.149 111.41C419.619 112.092 418.997 112.444 418.282 112.466C417.567 112.487 416.946 112.309 416.42 111.931C415.89 111.519 415.551 110.998 415.403 110.367C415.251 109.702 415.44 109.029 415.97 108.347L424.605 97.5194C425.168 96.8333 425.791 96.4815 426.472 96.4641C427.187 96.4425 427.793 96.6398 428.29 97.0558C428.816 97.434 429.17 97.9364 429.351 98.563C429.532 99.1896 429.343 99.8628 428.785 100.583Z" fill="black"/>
<path d="M458.58 104.422L455.659 81.205C455.578 80.5657 455.759 79.9619 456.2 79.3937C456.675 78.8212 457.265 78.4906 457.972 78.4017L465.694 77.4302C467.175 77.2439 468.538 77.2092 469.783 77.326C471.062 77.4385 472.177 77.7426 473.128 78.2382C474.108 78.6959 474.908 79.3473 475.527 80.1923C476.142 81.0036 476.525 82.015 476.678 83.2263C476.843 84.5386 476.682 85.7039 476.195 86.7223C475.703 87.707 474.934 88.5215 473.887 89.1659C475.751 89.3075 477.23 89.9247 478.324 91.0175C479.415 92.0766 480.07 93.481 480.29 95.2308C480.468 96.644 480.391 97.9354 480.06 99.1051C479.728 100.275 479.123 101.308 478.245 102.205C477.362 103.068 476.206 103.794 474.776 104.384C473.342 104.941 471.599 105.348 469.547 105.606L461.522 106.616C460.815 106.705 460.163 106.547 459.565 106.144C458.997 105.703 458.668 105.129 458.58 104.422ZM463.562 101.232L468.912 100.559C470.46 100.364 471.658 100.111 472.508 99.7988C473.391 99.4826 474.03 99.1288 474.425 98.7373C474.816 98.3121 475.032 97.8576 475.074 97.3739C475.115 96.8901 475.105 96.3959 475.041 95.8911C474.982 95.4201 474.859 94.9911 474.674 94.6042C474.518 94.1795 474.183 93.8285 473.67 93.5513C473.19 93.2699 472.467 93.0875 471.499 93.0041C470.565 92.9165 469.274 92.9764 467.625 93.1839L461.871 93.9077C460.996 94.0178 460.311 93.8648 459.814 93.4488C459.317 93.0327 459.033 92.5387 458.961 91.9667C458.889 91.3946 459.042 90.8456 459.42 90.3195C459.798 89.7934 460.425 89.4753 461.3 89.3652L466.751 88.6795C467.857 88.5061 468.734 88.2762 469.381 87.9896C470.025 87.6694 470.493 87.3199 470.787 86.9411C471.115 86.558 471.304 86.1583 471.354 85.7418C471.438 85.3211 471.457 84.9257 471.41 84.5555C471.364 84.1854 471.271 83.8553 471.132 83.5651C470.989 83.2414 470.734 82.9829 470.368 82.7897C469.997 82.5628 469.484 82.4223 468.828 82.3681C468.205 82.3097 467.372 82.3462 466.329 82.4774L461.282 83.1124L463.562 101.232Z" fill="black"/>
<path d="M501.226 99.416L499.327 84.3248C499.031 81.9694 498.388 80.3925 497.399 79.594C496.406 78.7619 494.866 78.4771 492.78 78.7396C491.501 78.9004 490.424 79.3093 489.55 79.9662C488.709 80.6189 488.075 81.4165 487.646 82.3591C487.336 83.1502 486.834 83.6406 486.14 83.8305C485.479 84.0161 484.827 83.9955 484.184 83.7689C483.573 83.538 483.096 83.1367 482.75 82.5649C482.434 81.9552 482.448 81.2527 482.793 80.4574C483.553 78.6186 484.797 77.0949 486.524 75.8863C488.286 74.6734 490.277 73.9273 492.498 73.6479C494.416 73.4066 496.084 73.4873 497.502 73.89C498.949 74.2548 500.157 74.889 501.125 75.7927C502.089 76.6626 502.845 77.7809 503.393 79.1476C503.97 80.4764 504.365 81.982 504.576 83.6644L506.475 98.7556C506.581 99.5968 506.375 100.272 505.858 100.781C505.371 101.253 504.807 101.529 504.168 101.609C503.528 101.69 502.897 101.564 502.275 101.232C501.681 100.863 501.332 100.257 501.226 99.416ZM501.513 87.8438C501.742 89.6608 501.779 91.4506 501.625 93.2133C501.466 94.9422 501.066 96.5137 500.423 97.9275C499.777 99.3078 498.846 100.467 497.631 101.406C496.445 102.307 494.927 102.874 493.077 103.107C491.596 103.294 490.239 103.242 489.007 102.953C487.808 102.659 486.773 102.174 485.901 101.498C485.026 100.788 484.318 99.9195 483.779 98.8935C483.269 97.8297 482.934 96.6585 482.773 95.3798C482.578 93.832 482.718 92.4984 483.193 91.3792C483.663 90.2262 484.377 89.2477 485.336 88.4435C486.294 87.6393 487.442 86.9822 488.779 86.4721C490.116 85.9621 491.536 85.5613 493.037 85.2699C494.568 84.9406 496.112 84.7122 497.668 84.5848C499.254 84.4195 500.759 84.2984 502.185 84.2215C502.211 84.4234 502.232 84.7284 502.249 85.1364C502.262 85.5107 502.265 85.9377 502.257 86.4172C502.278 86.8589 502.297 87.2837 502.314 87.6917C502.331 88.0998 502.338 88.4236 502.334 88.6634C500.122 88.7367 498.109 88.9044 496.296 89.1667C494.479 89.3953 492.933 89.7435 491.659 90.2115C490.381 90.6457 489.412 91.2291 488.752 91.9615C488.126 92.6898 487.883 93.6091 488.022 94.7194C488.153 95.7625 488.621 96.6266 489.425 97.3116C490.258 97.9587 491.567 98.1701 493.35 97.9458C494.494 97.8018 495.491 97.4372 496.34 96.8518C497.223 96.2622 497.935 95.5402 498.477 94.6859C499.049 93.7937 499.452 92.7859 499.686 91.6626C499.917 90.5057 499.954 89.3047 499.797 88.0597C499.759 87.7569 499.816 87.5276 499.967 87.3718C500.152 87.2118 500.347 87.136 500.554 87.1442C500.755 87.1188 500.949 87.1628 501.134 87.2762C501.353 87.3854 501.479 87.5746 501.513 87.8438Z" fill="black"/>
<path d="M533.801 91.7801C532.932 93.8377 531.688 95.4982 530.069 96.7614C528.485 98.0204 526.498 98.8001 524.109 99.1007C521.989 99.3674 520.041 99.2364 518.266 98.7078C516.52 98.1413 514.994 97.2908 513.689 96.1561C512.414 94.9835 511.363 93.5604 510.537 91.8869C509.707 90.1798 509.163 88.2999 508.905 86.2474C508.651 84.2285 508.7 82.3082 509.052 80.4865C509.433 78.627 510.098 76.988 511.048 75.5697C511.997 74.1514 513.233 72.9705 514.755 72.027C516.273 71.0499 518.041 70.4344 520.06 70.1804C522.348 69.8925 524.479 70.1201 526.452 70.8631C528.459 71.6018 530.078 72.7825 531.307 74.4053C531.838 75.0905 532.009 75.7697 531.82 76.4429C531.627 77.0824 531.264 77.5896 530.73 77.9644C530.196 78.3392 529.569 78.5205 528.85 78.5085C528.164 78.4922 527.556 78.1415 527.026 77.4562C526.411 76.6449 525.565 76.0335 524.488 75.6221C523.406 75.1771 522.142 75.0456 520.695 75.2276C519.618 75.3631 518.634 75.692 517.743 76.2143C516.852 76.7366 516.101 77.4291 515.492 78.292C514.916 79.1505 514.501 80.1941 514.245 81.4225C514.023 82.6468 514.01 84.0328 514.204 85.5806C514.403 87.1621 514.762 88.5184 515.28 89.6495C515.832 90.7764 516.512 91.6992 517.321 92.4178C518.124 93.1029 519.057 93.5838 520.117 93.8605C521.177 94.1373 522.296 94.2016 523.474 94.0535C524.82 93.8841 525.93 93.471 526.804 92.8141C527.674 92.1236 528.343 91.185 528.809 89.9984C529.153 89.2031 529.655 88.7127 530.315 88.5271C531.005 88.3036 531.655 88.3073 532.265 88.5381C532.909 88.7648 533.403 89.164 533.749 89.7358C534.094 90.3076 534.112 90.989 533.801 91.7801Z" fill="black"/>
<rect y="35.0287" width="428.255" height="74.3236" rx="37.1618" transform="rotate(-4 0 35.0287)" fill="#ED771E"/>
<path d="M47.2543 63.5765C48.1 63.5174 48.8868 63.3434 49.6145 63.0545C50.3398 62.7318 50.959 62.3485 51.4719 61.9047C52.0162 61.4247 52.4194 60.8696 52.6813 60.2393C52.9408 59.5753 53.0445 58.8711 52.9925 58.1268C52.9452 57.4502 52.8023 56.8652 52.5638 56.372C52.3253 55.8787 51.9575 55.4795 51.4602 55.1743C50.9944 54.8329 50.3665 54.6048 49.5765 54.4901C48.8181 54.3391 47.8975 54.3015 46.815 54.3772L43.5165 54.6079L45.3865 81.3512L48.4313 81.1382C49.9875 81.0294 51.2963 80.7849 52.3576 80.4047C53.4165 79.9907 54.2642 79.4725 54.9006 78.8501C55.537 78.2276 55.9802 77.5167 56.2303 76.7173C56.4803 75.9179 56.5734 75.0615 56.5095 74.1481C56.4409 73.167 56.2284 72.3149 55.8719 71.5919C55.5153 70.869 54.981 70.2774 54.2689 69.8172C53.5545 69.3233 52.6465 68.9788 51.545 68.7839C50.4434 68.5889 49.1315 68.5447 47.6091 68.6511L42.5852 69.0024C41.7056 69.0639 41.0113 68.8575 40.5022 68.3832C40.0245 67.8726 39.7632 67.296 39.7183 66.6532C39.6733 66.0104 39.853 65.4199 40.2573 64.8817C40.6931 64.3073 41.3508 63.9893 42.2304 63.9278L47.2543 63.5765C49.4242 63.4928 51.3738 63.6624 53.1032 64.0854C54.8664 64.506 56.3744 65.1655 57.6271 66.0638C58.8774 66.9283 59.8543 68.0158 60.5579 69.3265C61.2953 70.6348 61.722 72.1178 61.8379 73.7755C61.9609 75.5347 61.735 77.1653 61.1601 78.6673C60.6167 80.1332 59.7703 81.3992 58.621 82.4655C57.4717 83.5317 56.0702 84.3947 54.4165 85.0542C52.7604 85.68 50.8837 86.0662 48.7861 86.2129L43.1026 86.6103C42.3921 86.66 41.7497 86.4669 41.1753 86.0311C40.5985 85.5615 40.2853 84.9715 40.2356 84.2611L38.0142 52.4939C37.9645 51.7835 38.1938 51.1725 38.702 50.661C39.2078 50.1157 39.8159 49.8182 40.5263 49.7685L46.4637 49.3534C47.9184 49.2516 49.3173 49.3238 50.6603 49.5698C52.0372 49.8135 53.258 50.2551 54.3226 50.8946C55.421 51.5317 56.3161 52.421 57.0079 53.5625C57.7311 54.6678 58.1518 56.0662 58.2701 57.7577C58.3766 59.2801 58.1317 60.6401 57.5355 61.8377C56.937 63.0014 56.1224 63.9933 55.0919 64.8132C54.0952 65.6309 52.967 66.2707 51.7075 66.7327C50.4479 67.1947 49.243 67.466 48.0928 67.5464C47.1794 67.6103 46.4716 67.4558 45.9696 67.0829C45.4652 66.6763 45.1796 66.2373 45.1126 65.766C45.0433 65.2609 45.1805 64.7924 45.5243 64.3604C45.8995 63.8922 46.4761 63.6309 47.2543 63.5765Z" fill="black"/>
<path d="M82.9934 79.9453C83.6163 78.6439 84.109 77.1816 84.4714 75.5584C84.8315 73.9014 85.1168 72.1476 85.3274 70.2971C85.5379 68.4466 85.6616 66.5682 85.6982 64.6618C85.7664 62.7193 85.7873 60.831 85.7611 58.997C85.7324 57.1293 85.6771 55.3653 85.595 53.7052C85.5105 52.0113 85.4222 50.5047 85.3299 49.1853C85.2802 48.4748 85.4926 47.865 85.9669 47.3559C86.4727 46.8106 87.0809 46.5131 87.7913 46.4634L104.893 45.2676C105.603 45.2179 106.23 45.4291 106.773 45.901C107.347 46.3368 107.659 46.9099 107.709 47.6204L109.92 79.2353L104.642 79.6043L102.605 50.476L90.7814 51.3028C90.899 53.4703 90.978 55.5726 91.0184 57.6095C91.0927 59.6441 91.0946 61.6158 91.0241 63.5245C90.9874 65.4308 90.8941 67.2562 90.7441 69.0005C90.5917 70.7109 90.3839 72.3573 90.1206 73.9395C89.8887 75.4856 89.5821 76.9348 89.2007 78.2874C88.8194 79.6399 88.3778 80.8606 87.876 81.9496L82.9934 79.9453ZM79.9479 90.3571L79.3304 81.5273C79.2831 80.8507 79.4954 80.2409 79.9674 79.6979C80.4732 79.1526 81.0813 78.8551 81.7918 78.8054L112.29 76.6728C113.001 76.6231 113.627 76.8343 114.17 77.3062C114.747 77.7758 115.059 78.349 115.107 79.0256L115.724 87.8554C115.783 88.7012 115.539 89.3472 114.993 89.7934C114.482 90.271 113.905 90.5323 113.263 90.5773C112.62 90.6222 111.995 90.4449 111.39 90.0453C110.82 89.6772 110.505 89.0702 110.446 88.2245L110.006 81.9319L84.7854 83.6955L85.2255 89.9881C85.2846 90.8339 85.0408 91.4798 84.4941 91.926C83.9835 92.4037 83.4069 92.665 82.7641 92.7099C82.1213 92.7549 81.497 92.5775 80.8911 92.178C80.3214 91.8098 80.007 91.2029 79.9479 90.3571Z" fill="black"/>
<path d="M116.68 67.1358C116.538 65.106 116.71 63.1902 117.196 61.3884C117.68 59.5528 118.435 57.9531 119.461 56.5895C120.485 55.192 121.783 54.0644 123.355 53.2065C124.961 52.3464 126.796 51.8441 128.859 51.6998C130.923 51.5555 132.793 51.7987 134.469 52.4294C136.145 53.0601 137.587 53.9962 138.796 55.2375C140.036 56.4426 141.006 57.9216 141.707 59.6744C142.439 61.3911 142.876 63.2643 143.017 65.2941C143.162 67.3578 142.992 69.3075 142.509 71.1431C142.056 72.9425 141.301 74.5421 140.243 75.942C139.217 77.3056 137.919 78.4333 136.349 79.3249C134.778 80.1828 132.96 80.6838 130.896 80.8281C128.833 80.9724 126.946 80.7304 125.236 80.1021C123.558 79.4375 122.099 78.5026 120.858 77.2975C119.65 76.0562 118.679 74.5772 117.947 72.8606C117.247 71.1078 116.824 69.1995 116.68 67.1358ZM122.009 66.7632C122.12 68.3533 122.42 69.7262 122.908 70.8818C123.397 72.0375 124.008 72.9977 124.742 73.7623C125.507 74.4908 126.377 75.0248 127.352 75.3646C128.362 75.7019 129.425 75.8316 130.541 75.7535C131.624 75.6778 132.625 75.4039 133.544 74.9316C134.496 74.4571 135.301 73.8059 135.957 72.9781C136.61 72.1165 137.099 71.0794 137.422 69.867C137.745 68.6545 137.851 67.2532 137.74 65.6632C137.631 64.107 137.332 62.751 136.843 61.5953C136.355 60.4396 135.728 59.4976 134.963 58.7692C134.198 58.0407 133.328 57.5066 132.352 57.1669C131.377 56.8272 130.331 56.6963 129.214 56.7744C128.098 56.8525 127.063 57.1288 126.11 57.6034C125.192 58.0756 124.404 58.7256 123.748 59.5534C123.126 60.3788 122.653 61.3977 122.33 62.6102C122.007 63.8227 121.9 65.207 122.009 66.7632Z" fill="black"/>
<path d="M147.705 75.1653C147.853 74.8489 148.034 74.2754 148.247 73.4445C148.493 72.5774 148.694 71.3225 148.851 69.6797C149.006 68.0031 149.092 65.8382 149.111 63.1852C149.127 60.4984 148.997 57.1759 148.72 53.2177C148.675 52.5749 148.888 51.982 149.36 51.4391C149.866 50.8938 150.474 50.5963 151.185 50.5466L165.495 49.5459C166.206 49.4962 166.832 49.7074 167.375 50.1794C167.952 50.649 168.263 51.2052 168.308 51.848L169.991 75.1877C170.05 76.0335 169.807 76.6963 169.263 77.1764C168.75 77.6202 168.155 77.8658 167.479 77.9131C166.836 77.958 166.213 77.7976 165.609 77.4319C165.037 77.0299 164.722 76.406 164.663 75.5603L163.211 54.8051L154.178 55.4367C154.388 58.9236 154.461 61.9102 154.397 64.3964C154.367 66.8803 154.258 68.9786 154.072 70.6914C153.886 72.4043 153.642 73.7812 153.341 74.8221C153.074 75.8607 152.774 76.6806 152.442 77.2817C152.088 78.0544 151.561 78.5332 150.86 78.7182C150.19 78.867 149.541 78.8105 148.91 78.5486C148.312 78.2505 147.856 77.8064 147.542 77.2164C147.263 76.624 147.317 75.9403 147.705 75.1653ZM145.118 84.1172L144.618 76.9619C144.571 76.2853 144.8 75.6744 145.306 75.1291C145.811 74.5837 146.419 74.2862 147.13 74.2366L170.93 72.5723C171.64 72.5226 172.267 72.7338 172.81 73.2058C173.387 73.6754 173.699 74.2485 173.746 74.9251L174.246 82.0803C174.306 82.9261 174.063 83.589 173.519 84.069C173.008 84.5466 172.431 84.8079 171.789 84.8529C171.146 84.8978 170.522 84.7205 169.916 84.3209C169.344 83.919 169.028 83.2951 168.969 82.4494L168.646 77.8315L150.124 79.1267L150.447 83.7446C150.506 84.5903 150.263 85.2532 149.719 85.7333C149.208 86.2109 148.615 86.4734 147.938 86.5207C147.295 86.5656 146.671 86.3883 146.065 85.9887C145.493 85.5868 145.177 84.9629 145.118 84.1172Z" fill="black"/>
<path d="M174.886 63.0657C174.744 61.0359 174.916 59.12 175.402 57.3183C175.885 55.4826 176.64 53.883 177.667 52.5194C178.691 51.1219 179.989 49.9943 181.561 49.1364C183.167 48.2762 185.001 47.774 187.065 47.6297C189.129 47.4854 190.998 47.7286 192.674 48.3593C194.35 48.99 195.792 49.926 197.001 51.1674C198.241 52.3725 199.212 53.8515 199.912 55.6043C200.644 57.3209 201.081 59.1942 201.223 61.224C201.367 63.2877 201.198 65.2374 200.714 67.073C200.262 68.8724 199.507 70.472 198.449 71.8718C197.422 73.2355 196.124 74.3631 194.555 75.2548C192.983 76.1126 191.165 76.6137 189.102 76.758C187.038 76.9023 185.151 76.6603 183.442 76.0319C181.763 75.3674 180.304 74.4325 179.064 73.2274C177.855 71.986 176.885 70.5071 176.153 68.7905C175.452 67.0376 175.03 65.1294 174.886 63.0657ZM180.214 62.6931C180.325 64.2832 180.625 65.656 181.114 66.8117C181.603 67.9674 182.214 68.9276 182.947 69.6922C183.712 70.4206 184.582 70.9547 185.558 71.2944C186.568 71.6318 187.63 71.7614 188.747 71.6834C189.829 71.6077 190.83 71.3337 191.749 70.8615C192.702 70.3869 193.506 69.7358 194.162 68.908C194.816 68.0464 195.304 67.0093 195.627 65.7968C195.951 64.5844 196.057 63.1831 195.945 61.5931C195.837 60.0369 195.538 58.6809 195.049 57.5252C194.56 56.3695 193.933 55.4275 193.169 54.699C192.404 53.9706 191.533 53.4365 190.558 53.0968C189.582 52.7571 188.536 52.6262 187.42 52.7043C186.303 52.7824 185.269 53.0587 184.316 53.5333C183.397 54.0055 182.61 54.6555 181.954 55.4832C181.331 56.3087 180.859 57.3276 180.536 58.5401C180.212 59.7525 180.105 61.1369 180.214 62.6931Z" fill="black"/>
<path d="M243.225 66.905C242.279 68.9429 240.93 70.5501 239.176 71.7266C237.456 72.9008 235.277 73.5801 232.638 73.7646C230.609 73.9066 228.754 73.6453 227.076 72.9807C225.398 72.3161 223.956 71.3801 222.749 70.1726C221.541 68.9313 220.569 67.4354 219.835 65.6849C219.134 63.9321 218.713 62.0408 218.571 60.0109C218.429 57.9811 218.584 56.0664 219.036 54.267C219.52 52.4314 220.275 50.8318 221.301 49.4681C222.328 48.1045 223.627 46.9938 225.199 46.1359C226.768 45.2443 228.568 44.7275 230.598 44.5855C232.594 44.446 234.362 44.6963 235.903 45.3365C237.475 45.9404 238.829 46.8316 239.965 48.01C241.099 49.1546 241.98 50.5718 242.609 52.2617C243.234 53.9178 243.615 55.71 243.749 57.6384C243.799 58.3488 243.571 58.9767 243.065 59.522C242.593 60.0649 242.002 60.3613 241.292 60.4109L221.704 61.7807C220.824 61.8422 220.128 61.6188 219.617 61.1107C219.139 60.6001 218.879 60.0404 218.837 59.4314C218.792 58.7886 218.971 58.1981 219.376 57.6599C219.811 57.0855 220.469 56.7676 221.349 56.706L238.095 55.535C237.603 53.3597 236.712 51.8071 235.423 50.8774C234.168 49.9452 232.678 49.5395 230.953 49.6602C229.566 49.7571 228.384 50.1118 227.407 50.724C226.463 51.3339 225.719 52.1169 225.174 53.0729C224.627 53.9951 224.258 55.0408 224.068 56.2099C223.875 57.3453 223.819 58.4881 223.899 59.6383C223.98 60.7886 224.196 61.9294 224.547 63.0607C224.898 64.192 225.41 65.1931 226.083 66.0639C226.753 66.901 227.599 67.5727 228.62 68.0793C229.673 68.5496 230.893 68.7362 232.28 68.6392C233.972 68.521 235.271 68.1411 236.178 67.4998C237.085 66.8584 237.82 65.9401 238.382 64.7449C238.77 63.9699 239.298 63.508 239.968 63.3592C240.671 63.208 241.321 63.2646 241.918 63.5288C242.514 63.7931 242.97 64.2371 243.286 64.861C243.633 65.4487 243.612 66.13 243.225 66.905Z" fill="black"/>
<path d="M271.21 64.9481C270.228 66.9545 268.895 68.5436 267.209 69.7154C265.557 70.8848 263.53 71.5535 261.128 71.7215C258.996 71.8705 257.059 71.632 255.315 71.006C253.603 70.3438 252.127 69.4102 250.887 68.205C249.678 66.9637 248.708 65.4847 247.976 63.7681C247.242 62.0176 246.802 60.1106 246.658 58.0469C246.516 56.0171 246.671 54.1024 247.123 52.303C247.607 50.4674 248.362 48.8678 249.388 47.5041C250.415 46.1405 251.714 45.0297 253.286 44.1719C254.855 43.2803 256.655 42.7634 258.685 42.6215C260.985 42.4606 263.1 42.8057 265.03 43.6567C266.993 44.5053 268.543 45.7737 269.681 47.462C270.173 48.1755 270.306 48.8631 270.08 49.5248C269.852 50.1527 269.461 50.639 268.908 50.9837C268.354 51.3284 267.718 51.4748 267 51.423C266.317 51.3688 265.729 50.985 265.237 50.2714C264.668 49.4273 263.857 48.7701 262.804 48.2998C261.749 47.7956 260.494 47.5944 259.04 47.6961C257.957 47.7718 256.956 48.0458 256.038 48.518C255.119 48.9902 254.331 49.6402 253.675 50.468C253.053 51.2934 252.58 52.3124 252.257 53.5248C251.968 54.7349 251.877 56.1181 251.986 57.6743C252.097 59.2644 252.381 60.6384 252.835 61.7965C253.324 62.9522 253.952 63.9111 254.719 64.6734C255.484 65.4018 256.388 65.9335 257.432 66.2685C258.475 66.6035 259.589 66.7296 260.773 66.6468C262.126 66.5522 263.257 66.2011 264.167 65.5936C265.074 64.9522 265.793 64.0521 266.324 62.8931C266.711 62.118 267.24 61.6561 267.91 61.5073C268.611 61.3223 269.259 61.3619 269.856 61.6262C270.486 61.8881 270.958 62.314 271.271 62.9041C271.584 63.4941 271.564 64.1754 271.21 64.9481Z" fill="black"/>
<path d="M286.653 43.7764L288.303 67.3734C288.362 68.2192 288.12 68.8821 287.575 69.3621C287.062 69.8059 286.468 70.0515 285.791 70.0988C285.148 70.1438 284.525 69.9834 283.922 69.6176C283.35 69.2157 283.034 68.5918 282.975 67.746L281.325 44.149C281.266 43.3033 281.493 42.6585 282.005 42.2146C282.55 41.7346 283.143 41.4721 283.786 41.4272C284.463 41.3799 285.087 41.5572 285.659 41.9591C286.263 42.3249 286.594 42.9307 286.653 43.7764ZM274.387 41.9314L293.214 40.6149C294.094 40.5534 294.773 40.7779 295.25 41.2885C295.726 41.7652 295.986 42.3249 296.031 42.9677C296.073 43.5767 295.893 44.1672 295.492 44.7392C295.09 45.3113 294.449 45.628 293.569 45.6895L274.742 47.0061C273.863 47.0676 273.167 46.8442 272.656 46.3361C272.178 45.8255 271.918 45.2658 271.875 44.6568C271.83 44.014 272.01 43.4235 272.414 42.8853C272.85 42.3109 273.508 41.9929 274.387 41.9314Z" fill="black"/>
<path d="M304.336 41.979L305.816 63.1401L308.404 62.9592C310.333 62.8243 311.846 62.5825 312.943 62.2338C314.074 61.8827 314.913 61.4841 315.46 61.0379C316.038 60.5555 316.393 60.0378 316.524 59.4847C316.656 58.9315 316.704 58.4013 316.668 57.8938C316.623 57.251 316.463 56.6672 316.189 56.1425C315.914 55.6178 315.442 55.1918 314.773 54.8646C314.136 54.5012 313.269 54.2559 312.172 54.1286C311.075 54.0013 309.681 53.9968 307.99 54.1151L302.712 54.4842C301.866 54.5433 301.189 54.3357 300.68 53.8614C300.202 53.3508 299.941 52.7742 299.896 52.1314C299.851 51.4886 300.031 50.8981 300.435 50.3599C300.871 49.7855 301.512 49.4687 302.357 49.4095L307.635 49.0405C309.428 48.9151 311.147 48.9479 312.792 49.1388C314.469 49.2935 315.959 49.6993 317.263 50.356C318.598 50.9766 319.68 51.8698 320.51 53.0357C321.339 54.2015 321.818 55.6979 321.946 57.5247C322.055 59.081 321.846 60.4724 321.32 61.6991C320.794 62.9257 319.967 63.9864 318.84 64.8812C317.746 65.7735 316.351 66.483 314.654 67.0097C312.957 67.5363 310.992 67.8777 308.759 68.0338L303.532 68.3993C302.822 68.449 302.179 68.2559 301.605 67.8201C301.028 67.3505 300.715 66.7605 300.665 66.05L299.008 42.3515C298.949 41.5058 299.176 40.861 299.689 40.4172C300.233 39.9371 300.827 39.6747 301.469 39.6297C302.146 39.5824 302.77 39.7597 303.342 40.1617C303.946 40.5274 304.277 41.1332 304.336 41.979Z" fill="black"/>
<path d="M351.339 39.2532L352.989 62.8502C353.048 63.6959 352.805 64.3588 352.261 64.8389C351.748 65.2827 351.153 65.5282 350.477 65.5756C349.834 65.6205 349.211 65.4601 348.607 65.0943C348.035 64.6924 347.72 64.0685 347.66 63.2228L346.01 39.6258C345.951 38.78 346.178 38.1352 346.691 37.6914C347.235 37.2114 347.829 36.9489 348.472 36.9039C349.148 36.8566 349.773 37.0339 350.345 37.4359C350.948 37.8016 351.28 38.4074 351.339 39.2532ZM339.073 37.4082L357.9 36.0917C358.78 36.0302 359.458 36.2547 359.936 36.7652C360.411 37.2419 360.671 37.8017 360.716 38.4445C360.759 39.0534 360.579 39.6439 360.177 40.216C359.775 40.788 359.134 41.1048 358.255 41.1663L339.428 42.4828C338.548 42.5443 337.853 42.321 337.341 41.8128C336.864 41.3023 336.604 40.7425 336.561 40.1336C336.516 39.4908 336.696 38.9003 337.1 38.3621C337.536 37.7876 338.193 37.4697 339.073 37.4082Z" fill="black"/>
<path d="M362.462 49.9491C362.32 47.9192 362.493 46.0034 362.978 44.2016C363.462 42.366 364.217 40.7664 365.244 39.4027C366.268 38.0053 367.566 36.8776 369.138 36.0198C370.743 35.1596 372.578 34.6573 374.642 34.513C376.705 34.3687 378.575 34.6119 380.251 35.2427C381.927 35.8734 383.369 36.8094 384.578 38.0507C385.818 39.2559 386.788 40.7349 387.489 42.4877C388.221 44.2043 388.658 46.0775 388.8 48.1074C388.944 50.1711 388.774 52.1207 388.291 53.9563C387.839 55.7557 387.084 57.3554 386.026 58.7552C384.999 60.1188 383.701 61.2465 382.132 62.1382C380.56 62.996 378.742 63.4971 376.678 63.6414C374.615 63.7857 372.728 63.5436 371.018 62.9153C369.34 62.2507 367.881 61.3159 366.641 60.1107C365.432 58.8694 364.462 57.3904 363.73 55.6738C363.029 53.921 362.607 52.0127 362.462 49.9491ZM367.791 49.5765C367.902 51.1665 368.202 52.5394 368.691 53.6951C369.18 54.8508 369.791 55.8109 370.524 56.5756C371.289 57.304 372.159 57.8381 373.135 58.1778C374.144 58.5152 375.207 58.6448 376.324 58.5667C377.406 58.491 378.407 58.2171 379.326 57.7449C380.278 57.2703 381.083 56.6191 381.739 55.7913C382.393 54.9297 382.881 53.8927 383.204 52.6802C383.527 51.4677 383.633 50.0665 383.522 48.4764C383.413 46.9202 383.115 45.5643 382.626 44.4086C382.137 43.2529 381.51 42.3108 380.745 41.5824C379.98 40.854 379.11 40.3199 378.135 39.9801C377.159 39.6404 376.113 39.5096 374.996 39.5876C373.88 39.6657 372.845 39.942 371.893 40.4166C370.974 40.8888 370.186 41.5388 369.53 42.3666C368.908 43.192 368.436 44.211 368.112 45.4234C367.789 46.6359 367.682 48.0203 367.791 49.5765Z" fill="black"/>
<path d="M401.808 56.8867C401.781 58.9284 401.308 60.9162 400.389 62.8502C399.507 64.8157 398.397 66.4402 397.058 67.7236C396.454 68.3099 395.791 68.5602 395.071 68.4745C394.387 68.4204 393.809 68.1718 393.336 67.729C392.863 67.2861 392.586 66.7275 392.505 66.0533C392.424 65.379 392.685 64.7319 393.287 64.1118C394.18 63.2674 394.938 62.1945 395.561 60.8931C396.182 59.5579 396.496 58.227 396.506 56.9005C396.514 56.05 396.793 55.4186 397.342 55.0062C397.889 54.56 398.486 54.3483 399.133 54.371C399.812 54.3575 400.422 54.5699 400.963 55.008C401.535 55.41 401.817 56.0362 401.808 56.8867Z" fill="black"/>
<rect y="35.0287" width="466.93" height="74.3236" rx="37.1618" transform="rotate(-4 0 35.0287)" fill="#ED771E"/>
<path d="M56.6316 83.9064L41.2137 52.2971L45.9331 51.9671L34.9157 85.4759C34.6318 86.2777 34.1587 86.8037 33.4962 87.054C32.8362 87.3381 32.1753 87.3673 31.5136 87.1416C30.8881 86.9474 30.3691 86.5757 29.9568 86.0266C29.5759 85.4413 29.5274 84.7478 29.8113 83.946L40.9195 50.2779C41.179 49.6138 41.5 49.0984 41.8823 48.7317C42.2984 48.3627 42.7433 48.1616 43.2169 48.1285C43.7244 48.093 44.2099 48.229 44.6733 48.5366C45.1368 48.8441 45.5444 49.3256 45.8962 49.9809L61.4805 81.7825C61.8732 82.537 61.9048 83.2317 61.5752 83.8666C61.2433 84.4678 60.7812 84.9081 60.1888 85.1875C59.5964 85.4669 58.9536 85.5118 58.2604 85.3223C57.5696 85.1666 57.0266 84.6947 56.6316 83.9064ZM36.3015 72.4774L53.5045 71.2745C54.3841 71.213 55.0627 71.4375 55.5404 71.948C56.0495 72.4224 56.3265 72.9809 56.3715 73.6237C56.4141 74.2327 56.2175 74.8243 55.7817 75.3988C55.3774 75.937 54.7354 76.2368 53.8558 76.2983L36.6528 77.5013C35.7732 77.5628 35.0789 77.3564 34.5697 76.882C34.0921 76.3715 33.832 75.8118 33.7894 75.2028C33.7444 74.56 33.9241 73.9695 34.3284 73.4313C34.7642 72.8569 35.4219 72.5389 36.3015 72.4774Z" fill="black"/>
<path d="M80.166 80.9348L78.5337 57.5916C78.4888 56.9488 78.7023 56.3559 79.1743 55.813C79.6801 55.2677 80.2882 54.9702 80.9986 54.9205L88.7628 54.3776C90.2514 54.2735 91.6141 54.3142 92.8509 54.4996C94.1216 54.6828 95.218 55.048 96.1402 55.5955C97.0938 56.1067 97.8563 56.8013 98.4276 57.6793C98.9966 58.5234 99.3237 59.5544 99.4088 60.7723C99.5011 62.0917 99.2759 63.2464 98.7332 64.2362C98.1881 65.1922 97.3751 65.963 96.2941 66.5485C98.147 66.7929 99.5897 67.4909 100.622 68.6426C101.652 69.7604 102.229 71.199 102.352 72.9582C102.451 74.3791 102.303 75.6643 101.907 76.8138C101.512 77.9634 100.851 78.9615 99.9241 79.8082C98.995 80.6211 97.8004 81.2825 96.3402 81.7926C94.8777 82.2688 93.1146 82.5791 91.0509 82.7234L82.9823 83.2876C82.2718 83.3373 81.6294 83.1443 81.055 82.7085C80.512 82.2365 80.2157 81.6453 80.166 80.9348ZM85.317 78.0249L90.6961 77.6488C92.2523 77.54 93.4631 77.3533 94.3285 77.0888C95.2277 76.822 95.8854 76.504 96.3016 76.1349C96.7153 75.732 96.9564 75.2902 97.0248 74.8095C97.0932 74.3288 97.1096 73.8347 97.0741 73.3272C97.041 72.8536 96.9426 72.4185 96.7789 72.022C96.6466 71.5893 96.3319 71.2204 95.8346 70.9152C95.3711 70.6076 94.6587 70.3855 93.6972 70.2487C92.7696 70.1096 91.4769 70.098 89.8192 70.2139L84.0341 70.6185C83.1545 70.68 82.4783 70.4893 82.0054 70.0464C81.5324 69.6035 81.2759 69.0945 81.2356 68.5194C81.1954 67.9443 81.3787 67.4045 81.7853 66.9001C82.192 66.3958 82.8352 66.1128 83.7148 66.0513L89.1954 65.6681C90.3094 65.5562 91.1976 65.3751 91.8601 65.1248C92.5201 64.8406 93.0075 64.5176 93.3221 64.1556C93.6706 63.7913 93.8814 63.4026 93.9545 62.9895C94.0614 62.5741 94.1019 62.1803 94.0759 61.8082C94.0499 61.436 93.9755 61.1013 93.8527 60.8039C93.7275 60.4727 93.4875 60.2005 93.1326 59.9873C92.7754 59.7403 92.2707 59.5717 91.6184 59.4813C91 59.3885 90.1664 59.3788 89.1177 59.4522L84.043 59.807L85.317 78.0249Z" fill="black"/>
<path d="M122.846 76.6245C123.469 75.3231 123.962 73.8608 124.324 72.2376C124.684 70.5806 124.97 68.8269 125.18 66.9763C125.391 65.1258 125.514 63.2474 125.551 61.341C125.619 59.3985 125.64 57.5102 125.614 55.6763C125.585 53.8085 125.53 52.0445 125.448 50.3845C125.363 48.6905 125.275 47.1839 125.183 45.8645C125.133 45.154 125.345 44.5443 125.82 44.0351C126.325 43.4898 126.934 43.1923 127.644 43.1427L144.746 41.9468C145.456 41.8971 146.083 42.1083 146.626 42.5802C147.2 43.016 147.512 43.5891 147.562 44.2996L149.772 75.9145L144.495 76.2835L142.458 47.1552L130.634 47.982C130.752 50.1495 130.831 52.2518 130.871 54.2887C130.945 56.3233 130.947 58.295 130.877 60.2037C130.84 62.11 130.747 63.9354 130.597 65.6797C130.444 67.3901 130.237 69.0365 129.973 70.6187C129.741 72.1648 129.435 73.6141 129.053 74.9666C128.672 76.3191 128.231 77.5398 127.729 78.6288L122.846 76.6245ZM119.801 87.0363L119.183 78.2065C119.136 77.5299 119.348 76.9201 119.82 76.3771C120.326 75.8318 120.934 75.5343 121.645 75.4847L152.143 73.352C152.853 73.3023 153.48 73.5135 154.023 73.9854C154.6 74.4551 154.912 75.0282 154.959 75.7048L155.577 84.5346C155.636 85.3804 155.392 86.0264 154.845 86.4726C154.335 86.9502 153.758 87.2115 153.115 87.2565C152.473 87.3014 151.848 87.1241 151.242 86.7245C150.673 86.3564 150.358 85.7494 150.299 84.9037L149.859 78.6111L124.638 80.3748L125.078 86.6673C125.137 87.5131 124.894 88.159 124.347 88.6052C123.836 89.0829 123.26 89.3442 122.617 89.3891C121.974 89.4341 121.35 89.2568 120.744 88.8572C120.174 88.4891 119.86 87.8821 119.801 87.0363Z" fill="black"/>
<path d="M156.533 63.815C156.391 61.7852 156.563 59.8694 157.049 58.0676C157.533 56.232 158.288 54.6323 159.314 53.2687C160.338 51.8712 161.636 50.7436 163.208 49.8858C164.814 49.0256 166.648 48.5233 168.712 48.379C170.776 48.2347 172.646 48.4779 174.321 49.1086C175.997 49.7394 177.44 50.6754 178.648 51.9167C179.889 53.1219 180.859 54.6008 181.559 56.3537C182.291 58.0703 182.728 59.9435 182.87 61.9734C183.015 64.037 182.845 65.9867 182.361 67.8223C181.909 69.6217 181.154 71.2213 180.096 72.6212C179.07 73.9848 177.772 75.1125 176.202 76.0041C174.63 76.862 172.813 77.363 170.749 77.5073C168.685 77.6516 166.799 77.4096 165.089 76.7813C163.41 76.1167 161.951 75.1819 160.711 73.9767C159.502 72.7354 158.532 71.2564 157.8 69.5398C157.1 67.787 156.677 65.8787 156.533 63.815ZM161.861 63.4424C161.972 65.0325 162.272 66.4054 162.761 67.5611C163.25 68.7167 163.861 69.6769 164.594 70.4415C165.359 71.17 166.23 71.704 167.205 72.0438C168.215 72.3811 169.278 72.5108 170.394 72.4327C171.477 72.357 172.477 72.0831 173.396 71.6109C174.349 71.1363 175.153 70.4851 175.809 69.6573C176.463 68.7957 176.951 67.7586 177.275 66.5462C177.598 65.3337 177.704 63.9325 177.593 62.3424C177.484 60.7862 177.185 59.4302 176.696 58.2745C176.207 57.1189 175.581 56.1768 174.816 55.4484C174.051 54.7199 173.181 54.1859 172.205 53.8461C171.229 53.5064 170.183 53.3756 169.067 53.4536C167.951 53.5317 166.916 53.808 165.963 54.2826C165.044 54.7548 164.257 55.4048 163.601 56.2326C162.979 57.058 162.506 58.077 162.183 59.2894C161.86 60.5019 161.752 61.8862 161.861 63.4424Z" fill="black"/>
<path d="M187.558 71.8445C187.705 71.5282 187.886 70.9546 188.1 70.1237C188.345 69.2566 188.547 68.0017 188.704 66.3589C188.859 64.6823 188.945 62.5175 188.964 59.8645C188.98 57.1776 188.849 53.8551 188.573 49.8969C188.528 49.2541 188.741 48.6612 189.213 48.1183C189.719 47.573 190.327 47.2755 191.037 47.2258L205.348 46.2251C206.058 46.1755 206.685 46.3866 207.228 46.8586C207.805 47.3282 208.116 47.8844 208.161 48.5272L209.844 71.8669C209.903 72.7127 209.66 73.3756 209.116 73.8556C208.603 74.2994 208.008 74.545 207.332 74.5923C206.689 74.6372 206.066 74.4768 205.462 74.1111C204.89 73.7091 204.574 73.0853 204.515 72.2395L203.064 51.4843L194.031 52.1159C194.241 55.6029 194.314 58.5894 194.25 61.0756C194.219 63.5595 194.111 65.6578 193.925 67.3707C193.739 69.0835 193.495 70.4604 193.194 71.5013C192.927 72.5399 192.627 73.3598 192.295 73.9609C191.941 74.7336 191.414 75.2124 190.713 75.3974C190.043 75.5462 189.393 75.4897 188.763 75.2278C188.164 74.9297 187.708 74.4856 187.395 73.8956C187.116 73.3032 187.17 72.6195 187.558 71.8445ZM184.971 80.7964L184.471 73.6412C184.423 72.9645 184.652 72.3536 185.158 71.8083C185.664 71.2629 186.272 70.9654 186.983 70.9158L210.783 69.2515C211.493 69.2018 212.12 69.413 212.663 69.885C213.24 70.3546 213.552 70.9277 213.599 71.6043L214.099 78.7595C214.158 79.6053 213.916 80.2682 213.371 80.7482C212.861 81.2259 212.284 81.4872 211.641 81.5321C210.999 81.577 210.374 81.3997 209.768 81.0001C209.196 80.5982 208.881 79.9743 208.822 79.1286L208.499 74.5107L189.976 75.8059L190.299 80.4238C190.358 81.2695 190.116 81.9324 189.571 82.4125C189.061 82.8901 188.467 83.1526 187.791 83.1999C187.148 83.2449 186.524 83.0675 185.918 82.668C185.346 82.266 185.03 81.6421 184.971 80.7964Z" fill="black"/>
<path d="M214.738 59.7449C214.597 57.7151 214.769 55.7992 215.254 53.9975C215.738 52.1618 216.493 50.5622 217.52 49.1986C218.544 47.8011 219.842 46.6735 221.414 45.8156C223.019 44.9554 224.854 44.4532 226.918 44.3089C228.981 44.1646 230.851 44.4078 232.527 45.0385C234.203 45.6692 235.645 46.6053 236.854 47.8466C238.094 49.0517 239.064 50.5307 239.765 52.2835C240.497 54.0001 240.934 55.8734 241.076 57.9032C241.22 59.9669 241.05 61.9166 240.567 63.7522C240.115 65.5516 239.36 67.1512 238.302 68.5511C237.275 69.9147 235.977 71.0423 234.408 71.934C232.836 72.7918 231.018 73.2929 228.954 73.4372C226.891 73.5815 225.004 73.3395 223.294 72.7111C221.616 72.0466 220.157 71.1117 218.917 69.9066C217.708 68.6653 216.738 67.1863 216.006 65.4697C215.305 63.7168 214.883 61.8086 214.738 59.7449ZM220.067 59.3723C220.178 60.9624 220.478 62.3352 220.967 63.4909C221.456 64.6466 222.067 65.6068 222.8 66.3714C223.565 67.0998 224.435 67.6339 225.411 67.9736C226.42 68.311 227.483 68.4407 228.6 68.3626C229.682 68.2869 230.683 68.0129 231.602 67.5407C232.555 67.0662 233.359 66.415 234.015 65.5872C234.669 64.7256 235.157 63.6885 235.48 62.476C235.803 61.2636 235.909 59.8623 235.798 58.2723C235.689 56.7161 235.391 55.3601 234.902 54.2044C234.413 53.0487 233.786 52.1067 233.021 51.3782C232.256 50.6498 231.386 50.1157 230.411 49.776C229.435 49.4363 228.389 49.3054 227.272 49.3835C226.156 49.4616 225.121 49.7379 224.169 50.2125C223.25 50.6847 222.462 51.3347 221.806 52.1625C221.184 52.9879 220.712 54.0068 220.388 55.2193C220.065 56.4318 219.958 57.8161 220.067 59.3723Z" fill="black"/>
<path d="M283.077 63.5843C282.132 65.6221 280.782 67.2293 279.029 68.4058C277.309 69.58 275.13 70.2593 272.491 70.4438C270.461 70.5858 268.607 70.3245 266.929 69.6599C265.251 68.9953 263.808 68.0593 262.602 66.8518C261.393 65.6105 260.422 64.1146 259.688 62.3641C258.987 60.6113 258.566 58.72 258.424 56.6901C258.282 54.6603 258.437 52.7457 258.889 50.9462C259.373 49.1106 260.128 47.511 261.154 46.1474C262.181 44.7837 263.48 43.673 265.052 42.8151C266.621 41.9235 268.421 41.4067 270.451 41.2647C272.447 41.1252 274.215 41.3755 275.756 42.0157C277.328 42.6197 278.682 43.5109 279.818 44.6893C280.952 45.8338 281.833 47.2511 282.461 48.9409C283.087 50.597 283.467 52.3892 283.602 54.3176C283.652 55.028 283.424 55.6559 282.918 56.2012C282.446 56.7442 281.855 57.0405 281.144 57.0901L261.556 58.4599C260.677 58.5214 259.981 58.2981 259.47 57.7899C258.992 57.2793 258.732 56.7196 258.689 56.1106C258.644 55.4679 258.824 54.8774 259.228 54.3391C259.664 53.7647 260.322 53.4468 261.201 53.3853L277.948 52.2142C277.456 50.0389 276.565 48.4863 275.276 47.5566C274.021 46.6245 272.531 46.2187 270.806 46.3394C269.419 46.4364 268.236 46.791 267.259 47.4033C266.316 48.0132 265.572 48.7961 265.027 49.7521C264.479 50.6743 264.111 51.72 263.92 52.8892C263.728 54.0245 263.672 55.1673 263.752 56.3175C263.833 57.4678 264.048 58.6086 264.399 59.7399C264.751 60.8712 265.263 61.8723 265.935 62.7432C266.606 63.5802 267.452 64.2519 268.473 64.7585C269.526 65.2288 270.746 65.4154 272.133 65.3185C273.824 65.2002 275.124 64.8203 276.031 64.179C276.938 63.5376 277.672 62.6193 278.235 61.4241C278.622 60.6491 279.151 60.1872 279.821 60.0384C280.524 59.8872 281.174 59.9438 281.77 60.208C282.367 60.4723 282.823 60.9163 283.138 61.5402C283.485 62.1279 283.465 62.8092 283.077 63.5843Z" fill="black"/>
<path d="M311.063 61.6273C310.081 63.6337 308.747 65.2228 307.061 66.3946C305.409 67.564 303.382 68.2327 300.98 68.4007C298.849 68.5497 296.912 68.3112 295.168 67.6852C293.456 67.023 291.98 66.0894 290.74 64.8842C289.531 63.6429 288.561 62.1639 287.829 60.4473C287.094 58.6969 286.655 56.7898 286.511 54.7261C286.369 52.6963 286.524 50.7816 286.976 48.9822C287.46 47.1466 288.215 45.547 289.241 44.1833C290.268 42.8197 291.567 41.709 293.139 40.8511C294.708 39.9595 296.508 39.4427 298.538 39.3007C300.838 39.1399 302.953 39.4849 304.882 40.3359C306.845 41.1845 308.396 42.4529 309.534 44.1412C310.026 44.8547 310.159 45.5423 309.933 46.204C309.705 46.8319 309.314 47.3182 308.76 47.6629C308.206 48.0076 307.571 48.154 306.853 48.1022C306.169 48.048 305.582 47.6642 305.09 46.9506C304.521 46.1065 303.71 45.4493 302.657 44.979C301.602 44.4748 300.347 44.2736 298.892 44.3753C297.81 44.451 296.809 44.725 295.89 45.1972C294.971 45.6694 294.184 46.3194 293.528 47.1472C292.906 47.9726 292.433 48.9916 292.11 50.204C291.82 51.4141 291.73 52.7973 291.839 54.3535C291.95 55.9436 292.233 57.3176 292.688 58.4757C293.177 59.6314 293.805 60.5903 294.572 61.3526C295.337 62.081 296.241 62.6127 297.284 62.9477C298.328 63.2827 299.441 63.4088 300.626 63.326C301.979 63.2314 303.11 62.8803 304.02 62.2728C304.927 61.6314 305.646 60.7313 306.176 59.5723C306.564 58.7972 307.093 58.3353 307.762 58.1865C308.463 58.0015 309.112 58.0411 309.708 58.3054C310.339 58.5673 310.81 58.9933 311.124 59.5833C311.437 60.1733 311.417 60.8547 311.063 61.6273Z" fill="black"/>
<path d="M326.506 40.4556L328.156 64.0526C328.215 64.8984 327.972 65.5613 327.428 66.0413C326.915 66.4851 326.32 66.7307 325.644 66.778C325.001 66.823 324.378 66.6626 323.774 66.2968C323.202 65.8949 322.887 65.271 322.828 64.4252L321.178 40.8282C321.118 39.9825 321.345 39.3377 321.858 38.8938C322.403 38.4138 322.996 38.1513 323.639 38.1064C324.316 38.0591 324.94 38.2364 325.512 38.6384C326.115 39.0041 326.447 39.6099 326.506 40.4556ZM314.24 38.6106L333.067 37.2941C333.947 37.2326 334.625 37.4571 335.103 37.9677C335.578 38.4444 335.838 39.0041 335.883 39.6469C335.926 40.2559 335.746 40.8464 335.344 41.4184C334.942 41.9905 334.302 42.3073 333.422 42.3688L314.595 43.6853C313.715 43.7468 313.02 43.5234 312.508 43.0153C312.031 42.5047 311.771 41.945 311.728 41.336C311.683 40.6932 311.863 40.1027 312.267 39.5645C312.703 38.9901 313.361 38.6721 314.24 38.6106Z" fill="black"/>
<path d="M344.189 38.6582L345.669 59.8193L348.257 59.6384C350.185 59.5035 351.698 59.2617 352.796 58.913C353.927 58.562 354.766 58.1633 355.313 57.7171C355.891 57.2348 356.246 56.717 356.377 56.1639C356.508 55.6108 356.556 55.0805 356.521 54.573C356.476 53.9302 356.316 53.3465 356.041 52.8217C355.767 52.297 355.295 51.871 354.626 51.5438C353.989 51.1805 353.122 50.9351 352.025 50.8078C350.928 50.6806 349.534 50.6761 347.843 50.7943L342.565 51.1634C341.719 51.2225 341.042 51.0149 340.533 50.5406C340.055 50.03 339.794 49.4534 339.749 48.8106C339.704 48.1678 339.883 47.5773 340.288 47.0391C340.723 46.4647 341.364 46.1479 342.21 46.0888L347.488 45.7197C349.281 45.5943 351 45.6271 352.645 45.818C354.322 45.9728 355.812 46.3785 357.116 47.0352C358.451 47.6558 359.533 48.549 360.363 49.7149C361.192 50.8807 361.671 52.3771 361.798 54.204C361.907 55.7602 361.699 57.1516 361.172 58.3783C360.646 59.6049 359.82 60.6656 358.692 61.5604C357.599 62.4527 356.204 63.1622 354.507 63.6889C352.81 64.2155 350.845 64.5569 348.612 64.713L343.385 65.0785C342.675 65.1282 342.032 64.9351 341.458 64.4993C340.881 64.0297 340.568 63.4397 340.518 62.7293L338.861 39.0308C338.802 38.185 339.029 37.5402 339.541 37.0964C340.086 36.6164 340.679 36.3539 341.322 36.3089C341.999 36.2616 342.623 36.4389 343.195 36.8409C343.799 37.2066 344.13 37.8124 344.189 38.6582Z" fill="black"/>
<path d="M391.191 35.9324L392.842 59.5294C392.901 60.3752 392.658 61.038 392.114 61.5181C391.601 61.9619 391.006 62.2075 390.329 62.2548C389.687 62.2997 389.064 62.1393 388.46 61.7736C387.888 61.3716 387.572 60.7478 387.513 59.902L385.863 36.305C385.804 35.4592 386.031 34.8144 386.544 34.3706C387.088 33.8906 387.682 33.6281 388.325 33.5831C389.001 33.5358 389.625 33.7131 390.198 34.1151C390.801 34.4809 391.132 35.0866 391.191 35.9324ZM378.926 34.0874L397.753 32.7709C398.632 32.7094 399.311 32.9339 399.789 33.4444C400.264 33.9211 400.524 34.4809 400.569 35.1237C400.611 35.7326 400.432 36.3231 400.03 36.8952C399.628 37.4672 398.987 37.784 398.108 37.8455L379.281 39.162C378.401 39.2235 377.706 39.0002 377.194 38.492C376.716 37.9815 376.456 37.4217 376.414 36.8128C376.369 36.17 376.548 35.5795 376.953 35.0413C377.389 34.4668 378.046 34.1489 378.926 34.0874Z" fill="black"/>
<path d="M402.315 46.6283C402.173 44.5984 402.345 42.6826 402.831 40.8808C403.315 39.0452 404.07 37.4456 405.096 36.0819C406.12 34.6845 407.418 33.5568 408.99 32.699C410.596 31.8388 412.431 31.3365 414.494 31.1922C416.558 31.0479 418.428 31.2911 420.104 31.9219C421.78 32.5526 423.222 33.4886 424.431 34.73C425.671 35.9351 426.641 37.4141 427.342 39.1669C428.074 40.8835 428.511 42.7567 428.652 44.7866C428.797 46.8503 428.627 48.7999 428.144 50.6355C427.691 52.435 426.936 54.0346 425.878 55.4344C424.852 56.7981 423.554 57.9257 421.984 58.8174C420.413 59.6752 418.595 60.1763 416.531 60.3206C414.467 60.4649 412.581 60.2229 410.871 59.5945C409.193 58.9299 407.734 57.9951 406.493 56.79C405.285 55.5486 404.314 54.0696 403.582 52.353C402.882 50.6002 402.459 48.692 402.315 46.6283ZM407.644 46.2557C407.755 47.8457 408.055 49.2186 408.543 50.3743C409.032 51.53 409.643 52.4901 410.377 53.2548C411.142 53.9832 412.012 54.5173 412.987 54.857C413.997 55.1944 415.06 55.324 416.176 55.2459C417.259 55.1702 418.26 54.8963 419.179 54.4241C420.131 53.9495 420.936 53.2983 421.592 52.4705C422.245 51.6089 422.734 50.5719 423.057 49.3594C423.38 48.1469 423.486 46.7457 423.375 45.1556C423.266 43.5994 422.967 42.2435 422.478 41.0878C421.99 39.9321 421.363 38.99 420.598 38.2616C419.833 37.5332 418.963 36.9991 417.987 36.6594C417.012 36.3196 415.966 36.1888 414.849 36.2669C413.733 36.3449 412.698 36.6212 411.745 37.0958C410.827 37.568 410.039 38.218 409.383 39.0458C408.761 39.8712 408.288 40.8902 407.965 42.1027C407.642 43.3151 407.535 44.6995 407.644 46.2557Z" fill="black"/>
<path d="M441.661 53.5659C441.634 55.6076 441.161 57.5954 440.242 59.5295C439.36 61.4949 438.249 63.1194 436.911 64.4029C436.306 64.9891 435.644 65.2394 434.924 65.1538C434.24 65.0996 433.662 64.851 433.189 64.4082C432.716 63.9653 432.439 63.4067 432.358 62.7325C432.277 62.0582 432.537 61.4111 433.14 60.791C434.033 59.9466 434.791 58.8738 435.414 57.5723C436.034 56.2371 436.349 54.9062 436.358 53.5797C436.367 52.7292 436.646 52.0978 437.195 51.6854C437.742 51.2392 438.339 51.0275 438.986 51.0502C439.665 51.0367 440.275 51.2491 440.816 51.6872C441.388 52.0892 441.669 52.7154 441.661 53.5659Z" fill="black"/>
</svg>
